<svg width="359" height="131" viewBox="0 0 359 131" fill="none" xmlns="http://www.w3.org/2000/svg">
<path d="M85.3145 42.9263C85.3145 41.5028 85.1691 40.4229 84.8782 39.6866C84.6359 38.9503 84.0784 38.4348 83.2059 38.1403C82.3334 37.8458 81.0247 37.6985 79.2796 37.6985C79.1342 37.6985 79.0615 37.5513 79.0615 37.2568C79.0615 36.9622 79.1342 36.815 79.2796 36.815C80.5399 36.815 81.9699 36.8641 83.5695 36.9622C85.2175 37.0113 87.1564 37.0359 89.3862 37.0359C91.1312 37.0359 92.852 37.0113 94.5485 36.9622C96.2935 36.8641 97.7962 36.815 99.0564 36.815C99.2019 36.815 99.2746 36.9622 99.2746 37.2568C99.2746 37.5513 99.2019 37.6985 99.0564 37.6985C97.4569 37.6985 96.245 37.8458 95.421 38.1403C94.597 38.3858 94.0395 38.8766 93.7487 39.6129C93.5063 40.3001 93.3852 41.3555 93.3852 42.779V76.8697C93.3852 78.2932 93.5063 79.3731 93.7487 80.1094C94.0395 80.8457 94.597 81.3366 95.421 81.582C96.245 81.8274 97.4569 81.9502 99.0564 81.9502C99.2019 81.9502 99.2746 82.0974 99.2746 82.3919C99.2746 82.6865 99.2019 82.8337 99.0564 82.8337C97.7962 82.8337 96.2935 82.8092 94.5485 82.7601C92.852 82.711 91.1312 82.6865 89.3862 82.6865C87.1564 82.6865 85.2175 82.711 83.5695 82.7601C81.9699 82.8092 80.5399 82.8337 79.2796 82.8337C79.1342 82.8337 79.0615 82.6865 79.0615 82.3919C79.0615 82.0974 79.1342 81.9502 79.2796 81.9502C81.0247 81.9502 82.3334 81.8274 83.2059 81.582C84.0784 81.3366 84.6359 80.8457 84.8782 80.1094C85.1691 79.3731 85.3145 78.2932 85.3145 76.8697V42.9263ZM57.5397 59.9348V57.8732H89.0226V59.9348H57.5397ZM53.7588 76.8697V42.779C53.7588 41.3555 53.6134 40.3001 53.3226 39.6129C53.0802 38.8766 52.547 38.3858 51.723 38.1403C50.9474 37.8458 49.7598 37.6985 48.1602 37.6985C48.0148 37.6985 47.9421 37.5513 47.9421 37.2568C47.9421 36.9622 48.0148 36.815 48.1602 36.815C49.4205 36.815 50.8505 36.8641 52.4501 36.9622C54.0497 37.0113 55.722 37.0359 57.467 37.0359C59.6967 37.0359 61.6356 37.0113 63.2837 36.9622C64.9802 36.8641 66.5071 36.815 67.8643 36.815C67.9613 36.815 68.0098 36.9622 68.0098 37.2568C68.0098 37.5513 67.9613 37.6985 67.8643 37.6985C66.1678 37.6985 64.8833 37.8458 64.0108 38.1403C63.1383 38.4348 62.5566 38.9503 62.2658 39.6866C61.9749 40.4229 61.8295 41.5028 61.8295 42.9263V76.8697C61.8295 78.2932 61.9749 79.3731 62.2658 80.1094C62.5566 80.8457 63.1383 81.3366 64.0108 81.582C64.8833 81.8274 66.1678 81.9502 67.8643 81.9502C67.9613 81.9502 68.0098 82.0974 68.0098 82.3919C68.0098 82.6865 67.9613 82.8337 67.8643 82.8337C66.4586 82.8337 64.9318 82.8092 63.2837 82.7601C61.6356 82.711 59.6967 82.6865 57.467 82.6865C55.722 82.6865 54.0254 82.711 52.3774 82.7601C50.7293 82.8092 49.2751 82.8337 48.0148 82.8337C47.9179 82.8337 47.8694 82.6865 47.8694 82.3919C47.8694 82.0974 47.9179 81.9502 48.0148 81.9502C49.6629 81.9502 50.8747 81.8274 51.6503 81.582C52.4743 81.3366 53.0317 80.8457 53.3226 80.1094C53.6134 79.3731 53.7588 78.2932 53.7588 76.8697Z" fill="#A1833F"/>
<path d="M124.553 83.2755C124.36 83.3737 124.117 83.4228 123.826 83.4228C122.954 83.4228 122.081 82.8337 121.209 81.6556C120.336 80.4776 119.9 78.7841 119.9 76.5752V64.0581C119.9 62.1437 119.779 60.5484 119.536 59.2721C119.294 57.9959 118.906 57.0387 118.373 56.4006C117.84 55.7624 117.113 55.4434 116.192 55.4434C115.465 55.4434 114.81 55.6397 114.229 56.0324C113.647 56.376 113.187 56.9651 112.847 57.7995C112.508 58.5849 112.29 59.6894 112.193 61.1129C112.047 62.5364 111.611 63.5918 110.884 64.279C110.157 64.9171 109.163 65.2362 107.903 65.2362C106.691 65.2362 105.819 64.9662 105.286 64.4262C104.752 63.8863 104.486 63.15 104.486 62.2173C104.486 61.1374 104.995 60.1066 106.013 59.1249C107.031 58.0941 108.291 57.1859 109.794 56.4006C111.345 55.5661 112.944 54.928 114.592 54.4862C116.24 53.9953 117.719 53.7499 119.028 53.7499C121.16 53.7499 122.978 54.4125 124.481 55.7379C125.983 57.0141 126.735 59.0512 126.735 61.8492V74.8817C126.735 76.3052 126.977 77.4097 127.462 78.195C127.995 78.9804 128.722 79.3731 129.643 79.3731C130.322 79.3731 131.025 79.2013 131.752 78.8577C131.945 78.7595 132.091 78.8577 132.188 79.1522C132.333 79.3977 132.285 79.5695 132.042 79.6676L124.553 83.2755ZM109.285 83.3491C107.782 83.3491 106.57 82.9564 105.649 82.1711C104.728 81.3366 104.268 80.1585 104.268 78.6368C104.268 76.8697 104.922 75.618 106.231 74.8817C107.588 74.0963 109.672 73.2373 112.484 72.3046L120.627 69.654L120.918 70.7584L115.901 72.5992C114.592 73.09 113.647 73.63 113.065 74.219C112.532 74.8081 112.266 75.5198 112.266 76.3543C112.266 77.3851 112.556 78.195 113.138 78.7841C113.72 79.3731 114.447 79.6676 115.319 79.6676C115.707 79.6676 116.216 79.594 116.846 79.4467C117.525 79.2504 118.252 78.9804 119.028 78.6368L123.027 76.4279L123.099 77.6796L116.846 81.1402C115.634 81.7784 114.35 82.3183 112.993 82.7601C111.635 83.1528 110.399 83.3491 109.285 83.3491Z" fill="#A1833F"/>
<path d="M164.12 54.4126C164.217 54.4126 164.266 54.5598 164.266 54.8543C164.266 55.1488 164.217 55.2961 164.12 55.2961C162.714 55.2961 161.454 55.8361 160.339 56.916C159.273 57.9959 158.255 59.6648 157.285 61.9228L148.342 82.8337C148.245 83.0792 147.979 83.2019 147.542 83.2019C147.155 83.2019 146.888 83.0792 146.743 82.8337L135.618 60.5238C134.552 58.2659 133.631 56.8423 132.855 56.2533C132.08 55.6152 131.159 55.2961 130.092 55.2961C129.947 55.2961 129.874 55.1488 129.874 54.8543C129.874 54.5598 129.947 54.4126 130.092 54.4126C130.916 54.4126 131.837 54.4371 132.855 54.4862C133.922 54.5353 135.352 54.5598 137.145 54.5598C139.132 54.5598 140.829 54.5353 142.235 54.4862C143.64 54.4371 144.949 54.4126 146.161 54.4126C146.306 54.4126 146.379 54.5598 146.379 54.8543C146.379 55.1488 146.306 55.2961 146.161 55.2961C144.658 55.2961 143.495 55.4925 142.671 55.8852C141.847 56.2778 141.726 57.0387 142.307 58.1677L151.032 74.8081L147.324 81.2875L155.25 61.8492C156.074 59.8366 156.074 58.2413 155.25 57.0632C154.474 55.8852 153.117 55.2961 151.178 55.2961C151.081 55.2961 151.032 55.1488 151.032 54.8543C151.032 54.5598 151.081 54.4126 151.178 54.4126C152.341 54.4126 153.432 54.4371 154.45 54.4862C155.516 54.5353 156.873 54.5598 158.521 54.5598C159.685 54.5598 160.63 54.5353 161.357 54.4862C162.133 54.4371 163.054 54.4126 164.12 54.4126Z" fill="#A1833F"/>
<path d="M182.619 83.7909C180.535 83.7909 178.499 83.4228 176.512 82.6865C174.524 81.9011 172.731 80.7721 171.131 79.2995L175.785 70.6848C175.785 73.5809 176.269 75.888 177.239 77.606C178.208 79.324 179.372 80.5512 180.729 81.2875C182.086 81.9747 183.298 82.3183 184.364 82.3183C186.497 82.3183 188.097 81.2384 189.163 79.0786C190.278 76.9188 190.835 73.8999 190.835 70.0221C190.835 65.6043 190.108 62.3891 188.654 60.3766C187.2 58.364 185.261 57.3577 182.838 57.3577C181.335 57.3577 179.905 57.6768 178.548 58.3149C177.19 58.9531 175.954 59.7139 174.84 60.5975L174.185 60.0084C175.203 58.9776 176.269 57.9713 177.384 56.9896C178.548 55.9588 179.856 55.1243 181.311 54.4862C182.765 53.799 184.413 53.4554 186.255 53.4554C188.388 53.4554 190.351 53.9708 192.144 55.0016C193.986 55.9833 195.465 57.4805 196.579 59.493C197.743 61.5056 198.324 64.0581 198.324 67.1505C198.324 70.832 197.549 73.9245 195.998 76.4279C194.495 78.8822 192.556 80.723 190.181 81.9502C187.806 83.1773 185.285 83.7909 182.619 83.7909ZM165.751 83.3491C165.557 83.3982 165.412 83.3 165.315 83.0546C165.218 82.8583 165.266 82.7355 165.46 82.6865C166.575 81.9993 167.447 81.0911 168.078 79.9622C168.708 78.7841 169.023 77.2133 169.023 75.2498V39.4657C169.023 37.7967 168.853 36.5941 168.514 35.8578C168.223 35.0724 167.666 34.6797 166.842 34.6797C166.211 34.6797 165.315 34.9497 164.151 35.4896C163.957 35.5387 163.788 35.416 163.642 35.1215C163.545 34.827 163.545 34.6552 163.642 34.6061L174.258 29.5256C174.403 29.4765 174.524 29.452 174.621 29.452C174.864 29.452 175.106 29.5747 175.348 29.8201C175.639 30.0165 175.785 30.2128 175.785 30.4092V78.7104L165.751 83.3491Z" fill="#A1833F"/>
<path d="M203.169 82.8337C203.072 82.8337 203.023 82.6865 203.023 82.3919C203.023 82.0974 203.072 81.9502 203.169 81.9502C204.671 81.9502 205.689 81.6066 206.222 80.9193C206.804 80.183 207.095 78.8332 207.095 76.8697L207.168 39.4657C207.168 37.7967 207.022 36.5941 206.731 35.8578C206.441 35.0724 205.883 34.6797 205.059 34.6797C204.429 34.6797 203.508 34.9497 202.296 35.4896C202.151 35.5387 202.005 35.416 201.86 35.1215C201.715 34.827 201.69 34.6552 201.787 34.6061L212.475 29.5256C212.572 29.4765 212.669 29.452 212.766 29.452C213.009 29.452 213.275 29.5747 213.566 29.8201C213.857 30.0165 214.002 30.2128 214.002 30.4092V76.8697C214.002 78.8332 214.269 80.183 214.802 80.9193C215.335 81.6066 216.353 81.9502 217.856 81.9502C218.05 81.9502 218.147 82.0974 218.147 82.3919C218.147 82.6865 218.05 82.8337 217.856 82.8337C216.935 82.8337 215.82 82.8092 214.511 82.7601C213.251 82.711 211.918 82.6865 210.512 82.6865C209.107 82.6865 207.774 82.711 206.513 82.7601C205.253 82.8092 204.138 82.8337 203.169 82.8337Z" fill="#A1833F"/>
<path d="M222.915 82.8337C222.769 82.8337 222.697 82.6865 222.697 82.3919C222.697 82.0974 222.769 81.9502 222.915 81.9502C224.417 81.9502 225.435 81.6066 225.969 80.9193C226.502 80.183 226.768 78.8332 226.768 76.8697V63.6899C226.768 62.0701 226.599 60.892 226.259 60.1557C225.969 59.3703 225.411 58.9776 224.587 58.9776C224.248 58.9776 223.836 59.0512 223.351 59.1985C222.915 59.3458 222.43 59.5421 221.897 59.7875C221.703 59.8366 221.533 59.7139 221.388 59.4194C221.291 59.1249 221.315 58.9531 221.461 58.904L232.44 53.7499C232.537 53.7008 232.609 53.6762 232.658 53.6762C232.9 53.6762 233.143 53.799 233.385 54.0444C233.627 54.2898 233.748 54.5107 233.748 54.7071C233.748 55.2961 233.724 56.2778 233.676 57.6523C233.627 59.0267 233.603 60.9902 233.603 63.5427V76.8697C233.603 78.8332 233.87 80.183 234.403 80.9193C234.985 81.6066 236.027 81.9502 237.529 81.9502C237.675 81.9502 237.747 82.0974 237.747 82.3919C237.747 82.6865 237.675 82.8337 237.529 82.8337C236.56 82.8337 235.445 82.8092 234.185 82.7601C232.924 82.711 231.591 82.6865 230.186 82.6865C228.828 82.6865 227.52 82.711 226.259 82.7601C224.999 82.8092 223.884 82.8337 222.915 82.8337ZM229.895 46.3869C228.538 46.3869 227.447 45.9942 226.623 45.2088C225.847 44.4234 225.46 43.319 225.46 41.8955C225.46 40.6192 225.847 39.6129 226.623 38.8766C227.447 38.0912 228.538 37.6985 229.895 37.6985C231.252 37.6985 232.294 38.0912 233.021 38.8766C233.748 39.6129 234.112 40.6192 234.112 41.8955C234.112 44.8897 232.706 46.3869 229.895 46.3869Z" fill="#A1833F"/>
<path d="M261.574 82.8337C261.428 82.8337 261.356 82.6865 261.356 82.3919C261.356 82.0974 261.428 81.9502 261.574 81.9502C263.076 81.9502 264.094 81.6066 264.628 80.9193C265.161 80.183 265.427 78.8332 265.427 76.8697V66.267C265.427 63.6163 264.943 61.6528 263.973 60.3766C263.052 59.1003 261.574 58.4622 259.538 58.4622C258.084 58.4622 256.581 58.8303 255.03 59.5667C253.527 60.3029 252.316 61.3092 251.395 62.5855L251.031 61.7019C252.728 59.2476 254.642 57.2841 256.775 55.8115C258.908 54.2898 261.234 53.529 263.755 53.529C266.47 53.529 268.554 54.388 270.008 56.106C271.511 57.8241 272.262 60.033 272.262 62.7327V76.8697C272.262 78.8332 272.529 80.183 273.062 80.9193C273.643 81.6066 274.686 81.9502 276.188 81.9502C276.334 81.9502 276.406 82.0974 276.406 82.3919C276.406 82.6865 276.334 82.8337 276.188 82.8337C275.219 82.8337 274.104 82.8092 272.844 82.7601C271.583 82.711 270.25 82.6865 268.845 82.6865C267.487 82.6865 266.179 82.711 264.918 82.7601C263.658 82.8092 262.543 82.8337 261.574 82.8337ZM242.015 82.8337C241.87 82.8337 241.797 82.6865 241.797 82.3919C241.797 82.0974 241.87 81.9502 242.015 81.9502C243.518 81.9502 244.536 81.6066 245.069 80.9193C245.602 80.183 245.869 78.8332 245.869 76.8697V63.0273C245.869 61.5056 245.699 60.4011 245.36 59.7139C245.02 58.9776 244.439 58.6095 243.615 58.6095C243.178 58.6095 242.669 58.7076 242.088 58.904C241.506 59.0512 240.852 59.2967 240.125 59.6403C239.931 59.7385 239.785 59.6403 239.688 59.3458C239.592 59.0512 239.592 58.8794 239.688 58.8304L249.795 53.8235C250.086 53.7253 250.255 53.6762 250.304 53.6762C250.837 53.6762 251.37 54.2653 251.904 55.4434C252.437 56.6215 252.703 58.3149 252.703 60.5238V76.8697C252.703 78.8332 252.97 80.183 253.503 80.9193C254.085 81.6066 255.127 81.9502 256.63 81.9502C256.775 81.9502 256.848 82.0974 256.848 82.3919C256.848 82.6865 256.775 82.8337 256.63 82.8337C255.66 82.8337 254.545 82.8092 253.285 82.7601C252.025 82.711 250.692 82.6865 249.286 82.6865C247.929 82.6865 246.62 82.711 245.36 82.7601C244.099 82.8092 242.985 82.8337 242.015 82.8337Z" fill="#A1833F"/>
<path d="M278.978 82.8337C278.881 82.8337 278.833 82.6865 278.833 82.3919C278.833 82.0974 278.881 81.9502 278.978 81.9502C280.481 81.9502 281.499 81.6066 282.032 80.9193C282.613 80.183 282.904 78.8332 282.904 76.8697V39.4657C282.904 37.7967 282.759 36.5941 282.468 35.8578C282.177 35.0724 281.62 34.6797 280.796 34.6797C280.117 34.6797 279.196 34.9497 278.033 35.4896C277.887 35.5387 277.742 35.416 277.596 35.1215C277.451 34.827 277.427 34.6552 277.524 34.6061L288.139 29.5256C288.285 29.4765 288.406 29.452 288.503 29.452C288.745 29.452 288.988 29.5747 289.23 29.8201C289.521 30.0165 289.666 30.2128 289.666 30.4092V76.8697C289.666 78.8332 289.933 80.183 290.466 80.9193C291.048 81.6066 292.09 81.9502 293.592 81.9502C293.786 81.9502 293.883 82.0974 293.883 82.3919C293.883 82.6865 293.786 82.8337 293.592 82.8337C292.623 82.8337 291.508 82.8092 290.248 82.7601C289.036 82.711 287.727 82.6865 286.322 82.6865C284.916 82.6865 283.583 82.711 282.323 82.7601C281.062 82.8092 279.947 82.8337 278.978 82.8337ZM297.301 82.8337C297.155 82.8337 297.082 82.6865 297.082 82.3919C297.082 82.0974 297.155 81.9502 297.301 81.9502C298.609 81.9502 299.433 81.6556 299.773 81.0666C300.112 80.4776 299.967 79.7658 299.336 78.9313L290.539 67.5187L295.483 63.6899L305.662 76.8697C307.068 78.6859 308.401 79.9867 309.661 80.7721C310.97 81.5575 312.279 81.9502 313.587 81.9502C313.733 81.9502 313.805 82.0974 313.805 82.3919C313.805 82.6865 313.733 82.8337 313.587 82.8337C312.618 82.8337 311.503 82.8092 310.243 82.7601C308.982 82.711 307.649 82.6865 306.244 82.6865C304.305 82.6865 302.608 82.711 301.154 82.7601C299.748 82.8092 298.464 82.8337 297.301 82.8337ZM287.049 71.8629L286.612 70.6848L296.428 61.1129C297.785 59.8366 298.391 58.5604 298.246 57.2841C298.149 55.9588 297.252 55.2961 295.556 55.2961C295.459 55.2961 295.41 55.1488 295.41 54.8543C295.41 54.5598 295.459 54.4126 295.556 54.4126C296.816 54.4126 298.076 54.4371 299.336 54.4862C300.645 54.5353 302.39 54.5598 304.571 54.5598C306.559 54.5598 308.134 54.5353 309.298 54.4862C310.509 54.4371 311.648 54.4126 312.715 54.4126C312.86 54.4126 312.933 54.5598 312.933 54.8543C312.933 55.1488 312.86 55.2961 312.715 55.2961C311.503 55.2961 310.049 55.517 308.352 55.9588C306.704 56.3515 305.008 57.0141 303.263 57.9468C301.518 58.8303 299.87 60.0084 298.318 61.481L287.049 71.8629Z" fill="#A1833F"/>
<path d="M359 119.649H321.131V116.581H355.97V3.06792H3.02954V116.581H36.3544V119.649H0V0H359V119.649Z" fill="#A1833F"/>
<path d="M49.2118 116.912L49.5753 116.225H54.568L54.7377 116.912H49.2118ZM61.3057 123.956C61.3865 123.956 61.4269 124.005 61.4269 124.103C61.4269 124.201 61.3865 124.251 61.3057 124.251C60.821 124.251 60.312 124.234 59.7788 124.201C59.2618 124.169 58.7609 124.152 58.2761 124.152C57.7268 124.152 57.2501 124.169 56.8462 124.201C56.4423 124.234 55.9899 124.251 55.489 124.251C55.4243 124.251 55.392 124.201 55.392 124.103C55.392 124.005 55.4243 123.956 55.489 123.956C56.1514 123.956 56.5311 123.825 56.6281 123.563C56.7412 123.285 56.5958 122.745 56.1918 121.944L51.2719 112.102L52.4594 109.991L47.6364 120.765C47.2002 121.747 47.1921 122.524 47.6122 123.097C48.0323 123.67 48.6947 123.956 49.5996 123.956C49.6803 123.956 49.7207 124.005 49.7207 124.103C49.7207 124.201 49.6803 124.251 49.5996 124.251C49.1148 124.251 48.6705 124.234 48.2666 124.201C47.8626 124.169 47.3537 124.152 46.7397 124.152C46.1095 124.152 45.6006 124.169 45.2128 124.201C44.8412 124.234 44.3807 124.251 43.8313 124.251C43.7667 124.251 43.7344 124.201 43.7344 124.103C43.7344 124.005 43.7667 123.956 43.8313 123.956C44.2676 123.956 44.6392 123.866 44.9462 123.686C45.2693 123.49 45.5844 123.146 45.8914 122.655C46.2146 122.148 46.5781 121.436 46.982 120.52L52.2413 108.813C52.2575 108.764 52.3302 108.739 52.4594 108.739C52.5887 108.723 52.6614 108.747 52.6776 108.813L58.7366 120.888C59.1244 121.657 59.4557 122.271 59.7303 122.729C60.0212 123.171 60.2878 123.49 60.5301 123.686C60.7886 123.866 61.0472 123.956 61.3057 123.956Z" fill="#A1833F"/>
<path d="M62.1254 124.251C62.0931 124.251 62.0769 124.201 62.0769 124.103C62.0769 124.005 62.0931 123.956 62.1254 123.956C62.6263 123.956 62.9656 123.842 63.1433 123.612C63.3372 123.367 63.4341 122.917 63.4341 122.263L63.4584 109.795C63.4584 109.238 63.4099 108.837 63.3129 108.592C63.216 108.33 63.0302 108.199 62.7555 108.199C62.5455 108.199 62.2385 108.289 61.8345 108.469C61.7861 108.486 61.7376 108.445 61.6891 108.347C61.6406 108.248 61.6326 108.191 61.6649 108.175L65.2276 106.481C65.2599 106.465 65.2922 106.457 65.3246 106.457C65.4053 106.457 65.4942 106.498 65.5912 106.579C65.6881 106.645 65.7366 106.71 65.7366 106.776V122.263C65.7366 122.917 65.8254 123.367 66.0032 123.612C66.1809 123.842 66.5202 123.956 67.0211 123.956C67.0857 123.956 67.118 124.005 67.118 124.103C67.118 124.201 67.0857 124.251 67.0211 124.251C66.7141 124.251 66.3425 124.242 65.9062 124.226C65.4861 124.21 65.0418 124.201 64.5732 124.201C64.1047 124.201 63.6603 124.21 63.2402 124.226C62.8201 124.242 62.4485 124.251 62.1254 124.251Z" fill="#A1833F"/>
<path d="M68.2712 124.251C68.2388 124.251 68.2227 124.201 68.2227 124.103C68.2227 124.005 68.2388 123.956 68.2712 123.956C68.772 123.956 69.1113 123.842 69.2891 123.612C69.483 123.367 69.5799 122.917 69.5799 122.263V109.795C69.5799 109.238 69.5314 108.837 69.4345 108.592C69.3376 108.33 69.1517 108.199 68.8771 108.199C68.6509 108.199 68.3439 108.289 67.9561 108.469C67.9076 108.486 67.8591 108.445 67.8107 108.347C67.7622 108.248 67.7541 108.191 67.7864 108.175L71.3249 106.481C71.3734 106.465 71.4138 106.457 71.4461 106.457C71.5269 106.457 71.6077 106.498 71.6885 106.579C71.7854 106.645 71.8339 106.71 71.8339 106.776V122.263C71.8339 122.917 71.9228 123.367 72.1005 123.612C72.2944 123.842 72.6418 123.956 73.1427 123.956C73.2073 123.956 73.2396 124.005 73.2396 124.103C73.2396 124.201 73.2073 124.251 73.1427 124.251C72.8195 124.251 72.4479 124.242 72.0278 124.226C71.6238 124.21 71.1876 124.201 70.719 124.201C70.2505 124.201 69.8061 124.21 69.386 124.226C68.9659 124.242 68.5943 124.251 68.2712 124.251ZM74.3787 124.251C74.3302 124.251 74.306 124.201 74.306 124.103C74.306 124.005 74.3302 123.956 74.3787 123.956C74.815 123.956 75.0896 123.858 75.2027 123.662C75.3158 123.465 75.2674 123.228 75.0573 122.95L72.1247 119.146L73.7728 117.869L77.1659 122.263C77.6344 122.868 78.0788 123.302 78.4989 123.563C78.9351 123.825 79.3714 123.956 79.8076 123.956C79.8561 123.956 79.8803 124.005 79.8803 124.103C79.8803 124.201 79.8561 124.251 79.8076 124.251C79.4845 124.251 79.1129 124.242 78.6928 124.226C78.2727 124.21 77.8283 124.201 77.3598 124.201C76.7135 124.201 76.1479 124.21 75.6632 124.226C75.1947 124.242 74.7665 124.251 74.3787 124.251ZM70.9614 120.594L70.816 120.201L74.0879 117.01C74.5403 116.585 74.7422 116.159 74.6938 115.734C74.6615 115.292 74.3625 115.071 73.797 115.071C73.7647 115.071 73.7486 115.022 73.7486 114.924C73.7486 114.826 73.7647 114.777 73.797 114.777C74.2171 114.777 74.6372 114.785 75.0573 114.801C75.4936 114.818 76.0752 114.826 76.8023 114.826C77.4648 114.826 77.9899 114.818 78.3777 114.801C78.7816 114.785 79.1613 114.777 79.5168 114.777C79.5653 114.777 79.5895 114.826 79.5895 114.924C79.5895 115.022 79.5653 115.071 79.5168 115.071C79.1129 115.071 78.6281 115.145 78.0626 115.292C77.5133 115.423 76.9477 115.644 76.3661 115.955C75.7844 116.249 75.2351 116.642 74.718 117.133L70.9614 120.594Z" fill="#A1833F"/>
<path d="M84.9853 124.57C83.9674 124.57 83.0868 124.332 82.3435 123.858C81.6003 123.383 81.0267 122.753 80.6228 121.968C80.2188 121.166 80.0169 120.307 80.0169 119.391C80.0169 118.54 80.1784 117.804 80.5016 117.182C80.8247 116.56 81.2529 116.053 81.7861 115.66C82.3193 115.251 82.901 114.949 83.5311 114.752C84.1613 114.556 84.7833 114.458 85.3973 114.458C86.4314 114.458 87.312 114.703 88.0391 115.194C88.7823 115.685 89.3478 116.315 89.7356 117.084C90.1234 117.853 90.3173 118.671 90.3173 119.538C90.3173 120.536 90.0668 121.42 89.566 122.189C89.0812 122.942 88.4349 123.531 87.6271 123.956C86.8192 124.365 85.9386 124.57 84.9853 124.57ZM85.7124 124.054C86.3587 124.054 86.8434 123.735 87.1666 123.097C87.4897 122.459 87.6513 121.559 87.6513 120.397C87.6513 119.203 87.4978 118.205 87.1908 117.403C86.9 116.601 86.5203 115.996 86.0517 115.587C85.5831 115.178 85.0903 114.973 84.5733 114.973C83.9431 114.973 83.4584 115.26 83.1191 115.832C82.796 116.405 82.6344 117.288 82.6344 118.483C82.6344 119.596 82.7717 120.577 83.0464 121.428C83.3211 122.263 83.6927 122.909 84.1613 123.367C84.6298 123.825 85.1469 124.054 85.7124 124.054Z" fill="#A1833F"/>
<path d="M91.608 124.251C91.5757 124.251 91.5596 124.201 91.5596 124.103C91.5596 124.005 91.5757 123.956 91.608 123.956C92.1089 123.956 92.4482 123.842 92.626 123.612C92.8199 123.367 92.9168 122.917 92.9168 122.263V109.795C92.9168 109.238 92.8683 108.837 92.7714 108.592C92.6744 108.33 92.4886 108.199 92.214 108.199C91.9878 108.199 91.6808 108.289 91.293 108.469C91.2445 108.486 91.196 108.445 91.1476 108.347C91.0991 108.248 91.091 108.191 91.1233 108.175L94.6618 106.481C94.6941 106.465 94.7184 106.457 94.7345 106.457C94.7507 106.457 94.7668 106.457 94.783 106.457C94.8638 106.457 94.9446 106.498 95.0254 106.579C95.1223 106.645 95.1708 106.71 95.1708 106.776V122.263C95.1708 122.917 95.2596 123.367 95.4374 123.612C95.6313 123.842 95.9787 123.956 96.4795 123.956C96.5442 123.956 96.5765 124.005 96.5765 124.103C96.5765 124.201 96.5442 124.251 96.4795 124.251C96.1564 124.251 95.7848 124.242 95.3647 124.226C94.9607 124.21 94.5245 124.201 94.0559 124.201C93.5873 124.201 93.143 124.21 92.7229 124.226C92.3028 124.242 91.9312 124.251 91.608 124.251ZM98.1276 124.251C98.0953 124.251 98.0791 124.201 98.0791 124.103C98.0791 124.005 98.0953 123.956 98.1276 123.956C98.6285 123.956 98.9678 123.842 99.1455 123.612C99.3394 123.367 99.4364 122.917 99.4364 122.263V118.728C99.4364 116.994 98.7739 116.127 97.449 116.127C96.9643 116.127 96.4634 116.249 95.9463 116.495C95.4455 116.74 95.0496 117.076 94.7588 117.501L94.6133 117.207C95.1789 116.389 95.8171 115.734 96.528 115.243C97.2389 114.736 98.0145 114.482 98.8547 114.482C99.7595 114.482 100.454 114.769 100.939 115.341C101.44 115.914 101.69 116.65 101.69 117.55V122.263C101.69 122.917 101.779 123.367 101.957 123.612C102.151 123.842 102.498 123.956 102.999 123.956C103.064 123.956 103.096 124.005 103.096 124.103C103.096 124.201 103.064 124.251 102.999 124.251C102.676 124.251 102.304 124.242 101.884 124.226C101.48 124.21 101.044 124.201 100.575 124.201C100.107 124.201 99.6626 124.21 99.2425 124.226C98.8224 124.242 98.4508 124.251 98.1276 124.251Z" fill="#A1833F"/>
<path d="M109.174 124.57C108.156 124.57 107.276 124.332 106.532 123.858C105.789 123.383 105.216 122.753 104.812 121.968C104.408 121.166 104.206 120.307 104.206 119.391C104.206 118.54 104.367 117.804 104.691 117.182C105.014 116.56 105.442 116.053 105.975 115.66C106.508 115.251 107.09 114.949 107.72 114.752C108.35 114.556 108.972 114.458 109.586 114.458C110.62 114.458 111.501 114.703 112.228 115.194C112.971 115.685 113.537 116.315 113.925 117.084C114.312 117.853 114.506 118.671 114.506 119.538C114.506 120.536 114.256 121.42 113.755 122.189C113.27 122.942 112.624 123.531 111.816 123.956C111.008 124.365 110.128 124.57 109.174 124.57ZM109.901 124.054C110.548 124.054 111.032 123.735 111.356 123.097C111.679 122.459 111.84 121.559 111.84 120.397C111.84 119.203 111.687 118.205 111.38 117.403C111.089 116.601 110.709 115.996 110.241 115.587C109.772 115.178 109.279 114.973 108.762 114.973C108.132 114.973 107.647 115.26 107.308 115.832C106.985 116.405 106.823 117.288 106.823 118.483C106.823 119.596 106.961 120.577 107.235 121.428C107.51 122.263 107.882 122.909 108.35 123.367C108.819 123.825 109.336 124.054 109.901 124.054Z" fill="#A1833F"/>
<path d="M116.136 124.251C116.104 124.251 116.088 124.201 116.088 124.103C116.088 124.005 116.104 123.956 116.136 123.956C116.637 123.956 116.977 123.842 117.154 123.612C117.348 123.367 117.445 122.917 117.445 122.263L117.469 109.795C117.469 109.238 117.421 108.837 117.324 108.592C117.227 108.33 117.041 108.199 116.766 108.199C116.556 108.199 116.249 108.289 115.845 108.469C115.797 108.486 115.749 108.445 115.7 108.347C115.652 108.248 115.643 108.191 115.676 108.175L119.239 106.481C119.271 106.465 119.303 106.457 119.335 106.457C119.416 106.457 119.505 106.498 119.602 106.579C119.699 106.645 119.748 106.71 119.748 106.776V122.263C119.748 122.917 119.836 123.367 120.014 123.612C120.192 123.842 120.531 123.956 121.032 123.956C121.097 123.956 121.129 124.005 121.129 124.103C121.129 124.201 121.097 124.251 121.032 124.251C120.725 124.251 120.353 124.242 119.917 124.226C119.497 124.21 119.053 124.201 118.584 124.201C118.116 124.201 117.671 124.21 117.251 124.226C116.831 124.242 116.459 124.251 116.136 124.251Z" fill="#A1833F"/>
<path d="M122.428 124.251C122.363 124.251 122.331 124.201 122.331 124.103C122.331 124.005 122.363 123.956 122.428 123.956C123.041 123.956 123.437 123.85 123.615 123.637C123.793 123.424 123.882 122.966 123.882 122.263V116.74C123.882 116.38 123.833 116.119 123.736 115.955C123.639 115.775 123.478 115.66 123.252 115.611C123.025 115.546 122.718 115.513 122.331 115.513C122.282 115.513 122.258 115.44 122.258 115.292C122.258 115.145 122.282 115.071 122.331 115.071C122.896 115.071 123.284 114.998 123.494 114.85C123.704 114.687 123.817 114.401 123.833 113.991C123.914 111.275 124.423 109.336 125.36 108.175C126.297 107.013 127.679 106.432 129.505 106.432C130.409 106.432 131.112 106.555 131.613 106.8C132.114 107.046 132.364 107.406 132.364 107.88C132.364 108.273 132.235 108.576 131.977 108.788C131.718 108.985 131.435 109.083 131.128 109.083C130.692 109.083 130.385 108.976 130.207 108.764C130.046 108.535 129.908 108.289 129.795 108.027C129.682 107.766 129.545 107.528 129.383 107.316C129.238 107.103 128.963 106.997 128.559 106.997C127.865 106.997 127.291 107.496 126.839 108.494C126.386 109.492 126.16 111.153 126.16 113.476V122.263C126.16 122.737 126.208 123.097 126.305 123.342C126.402 123.588 126.604 123.752 126.911 123.833C127.218 123.915 127.687 123.956 128.317 123.956C128.382 123.956 128.414 124.005 128.414 124.103C128.414 124.201 128.382 124.251 128.317 124.251C127.751 124.251 127.194 124.242 126.645 124.226C126.111 124.21 125.562 124.201 124.997 124.201C124.528 124.201 124.068 124.21 123.615 124.226C123.179 124.242 122.783 124.251 122.428 124.251ZM128.753 116.029C128.123 115.881 127.517 115.783 126.935 115.734C126.37 115.669 125.764 115.636 125.118 115.636V114.998C125.732 114.998 126.338 114.973 126.935 114.924C127.533 114.875 128.163 114.818 128.826 114.752C128.874 114.752 128.915 114.818 128.947 114.949C128.979 115.063 128.996 115.194 128.996 115.341C128.996 115.505 128.963 115.669 128.899 115.832C128.85 115.979 128.802 116.045 128.753 116.029Z" fill="#A1833F"/>
<path d="M133.06 117.599L132.866 117.28C133.496 116.544 134.029 115.979 134.465 115.587C134.902 115.194 135.273 114.924 135.58 114.777C135.887 114.613 136.162 114.531 136.404 114.531C136.744 114.531 137.091 114.662 137.446 114.924C137.818 115.17 138.004 115.497 138.004 115.906C138.004 116.249 137.899 116.536 137.689 116.765C137.495 116.978 137.22 117.084 136.865 117.084C136.525 117.084 136.267 116.994 136.089 116.814C135.928 116.634 135.774 116.462 135.629 116.299C135.499 116.119 135.306 116.029 135.047 116.029C134.934 116.029 134.805 116.069 134.659 116.151C134.53 116.217 134.336 116.364 134.078 116.593C133.835 116.806 133.496 117.141 133.06 117.599ZM130.103 124.251C130.054 124.251 130.03 124.201 130.03 124.103C130.03 124.005 130.054 123.956 130.103 123.956C130.604 123.956 130.943 123.842 131.121 123.612C131.299 123.367 131.387 122.917 131.387 122.263V117.648C131.387 117.141 131.331 116.773 131.218 116.544C131.105 116.299 130.911 116.176 130.636 116.176C130.491 116.176 130.321 116.209 130.127 116.274C129.933 116.323 129.715 116.405 129.473 116.519C129.408 116.552 129.36 116.519 129.327 116.421C129.295 116.323 129.295 116.266 129.327 116.249L132.696 114.581C132.793 114.548 132.85 114.531 132.866 114.531C133.044 114.531 133.221 114.728 133.399 115.12C133.577 115.513 133.666 116.078 133.666 116.814V122.263C133.666 122.688 133.73 123.032 133.859 123.293C133.989 123.539 134.207 123.711 134.514 123.809C134.837 123.907 135.273 123.956 135.823 123.956C135.887 123.956 135.92 124.005 135.92 124.103C135.92 124.201 135.887 124.251 135.823 124.251C135.386 124.251 134.885 124.242 134.32 124.226C133.771 124.21 133.173 124.201 132.526 124.201C132.074 124.201 131.638 124.21 131.218 124.226C130.798 124.242 130.426 124.251 130.103 124.251Z" fill="#A1833F"/>
<path d="M139.286 124.251C139.238 124.251 139.213 124.201 139.213 124.103C139.213 124.005 139.238 123.956 139.286 123.956C139.787 123.956 140.126 123.842 140.304 123.612C140.482 123.367 140.571 122.917 140.571 122.263V117.869C140.571 117.329 140.514 116.937 140.401 116.691C140.304 116.429 140.118 116.299 139.844 116.299C139.73 116.299 139.593 116.323 139.432 116.372C139.286 116.421 139.125 116.487 138.947 116.569C138.882 116.585 138.826 116.544 138.777 116.446C138.745 116.348 138.753 116.29 138.801 116.274L142.461 114.556C142.493 114.54 142.518 114.531 142.534 114.531C142.615 114.531 142.695 114.572 142.776 114.654C142.857 114.736 142.897 114.81 142.897 114.875C142.897 115.071 142.889 115.399 142.873 115.857C142.857 116.315 142.849 116.969 142.849 117.82V122.263C142.849 122.917 142.938 123.367 143.115 123.612C143.309 123.842 143.657 123.956 144.158 123.956C144.206 123.956 144.23 124.005 144.23 124.103C144.23 124.201 144.206 124.251 144.158 124.251C143.834 124.251 143.463 124.242 143.043 124.226C142.623 124.21 142.178 124.201 141.71 124.201C141.257 124.201 140.821 124.21 140.401 124.226C139.981 124.242 139.609 124.251 139.286 124.251ZM141.613 112.102C141.16 112.102 140.797 111.971 140.522 111.709C140.264 111.447 140.134 111.079 140.134 110.604C140.134 110.179 140.264 109.844 140.522 109.598C140.797 109.336 141.16 109.206 141.613 109.206C142.065 109.206 142.413 109.336 142.655 109.598C142.897 109.844 143.019 110.179 143.019 110.604C143.019 111.603 142.55 112.102 141.613 112.102Z" fill="#A1833F"/>
<path d="M155.041 124.545C154.153 124.545 153.45 124.259 152.933 123.686C152.432 123.113 152.182 122.377 152.182 121.477V117.869C152.182 117.329 152.117 116.928 151.988 116.667C151.875 116.405 151.689 116.274 151.43 116.274C151.252 116.274 151.051 116.331 150.824 116.446C150.76 116.462 150.703 116.421 150.655 116.323C150.622 116.225 150.63 116.168 150.679 116.151L153.927 114.581C153.975 114.564 154.015 114.556 154.048 114.556C154.129 114.556 154.209 114.597 154.29 114.679C154.387 114.744 154.436 114.81 154.436 114.875V120.299C154.436 121.183 154.597 121.845 154.92 122.287C155.26 122.729 155.768 122.95 156.447 122.95C156.916 122.95 157.384 122.819 157.853 122.557C158.321 122.279 158.693 121.935 158.968 121.526L159.113 121.821C158.564 122.623 157.95 123.277 157.271 123.784C156.593 124.291 155.849 124.545 155.041 124.545ZM160.761 114.875V121.404C160.761 121.96 160.81 122.353 160.907 122.582C161.02 122.811 161.197 122.925 161.44 122.925C161.553 122.925 161.69 122.901 161.852 122.852C162.03 122.803 162.223 122.737 162.433 122.655C162.498 122.623 162.555 122.655 162.603 122.753C162.652 122.835 162.652 122.893 162.603 122.925L159.259 124.57C159.226 124.586 159.186 124.594 159.137 124.594C158.976 124.594 158.83 124.39 158.701 123.981C158.572 123.572 158.507 122.991 158.507 122.238V117.869C158.507 117.329 158.443 116.928 158.313 116.667C158.2 116.405 158.014 116.274 157.756 116.274C157.578 116.274 157.368 116.331 157.126 116.446C157.077 116.462 157.029 116.421 156.98 116.323C156.948 116.225 156.956 116.168 157.005 116.151L160.252 114.581C160.285 114.564 160.325 114.556 160.373 114.556C160.454 114.556 160.535 114.597 160.616 114.679C160.713 114.744 160.761 114.81 160.761 114.875Z" fill="#A1833F"/>
<path d="M167.205 124.57C166.51 124.57 165.872 124.381 165.291 124.005C164.725 123.629 164.265 123.089 163.909 122.385C163.57 121.665 163.4 120.798 163.4 119.784C163.4 118.786 163.578 117.951 163.933 117.28C164.289 116.593 164.741 116.045 165.291 115.636C165.856 115.227 166.462 114.932 167.108 114.752C167.755 114.556 168.369 114.458 168.95 114.458C169.532 114.458 170.073 114.531 170.574 114.679C171.075 114.826 171.527 115.006 171.931 115.219L171.374 117.207C171.035 116.47 170.647 115.939 170.21 115.611C169.774 115.268 169.233 115.096 168.587 115.096C167.763 115.096 167.108 115.39 166.624 115.979C166.139 116.552 165.896 117.558 165.896 118.998C165.896 119.931 166.01 120.725 166.236 121.379C166.462 122.034 166.777 122.533 167.181 122.876C167.585 123.22 168.037 123.392 168.538 123.392C169.184 123.392 169.75 123.212 170.235 122.852C170.719 122.492 171.188 122.058 171.64 121.551L171.883 121.772C171.543 122.164 171.14 122.582 170.671 123.023C170.219 123.449 169.702 123.817 169.12 124.128C168.554 124.422 167.916 124.57 167.205 124.57ZM173.119 106.776V121.404C173.119 121.96 173.167 122.353 173.264 122.582C173.377 122.811 173.555 122.925 173.797 122.925C173.911 122.925 174.048 122.901 174.209 122.852C174.387 122.803 174.581 122.737 174.791 122.655C174.84 122.623 174.888 122.655 174.937 122.753C174.985 122.835 174.993 122.893 174.961 122.925L171.616 124.57C171.568 124.586 171.527 124.594 171.495 124.594C171.333 124.594 171.18 124.39 171.035 123.981C170.905 123.572 170.841 122.991 170.841 122.238V109.795C170.841 109.238 170.792 108.837 170.695 108.592C170.598 108.33 170.412 108.199 170.138 108.199C170.025 108.199 169.887 108.224 169.726 108.273C169.58 108.322 169.419 108.387 169.241 108.469C169.176 108.486 169.12 108.445 169.071 108.347C169.023 108.248 169.015 108.191 169.047 108.175L172.61 106.481C172.642 106.465 172.675 106.457 172.707 106.457C172.788 106.457 172.876 106.498 172.973 106.579C173.07 106.645 173.119 106.71 173.119 106.776Z" fill="#A1833F"/>
<path d="M180.675 124.545C179.625 124.545 178.728 124.324 177.985 123.882C177.258 123.441 176.7 122.86 176.312 122.14C175.941 121.404 175.755 120.626 175.755 119.808C175.755 118.843 175.997 117.967 176.482 117.182C176.967 116.38 177.621 115.742 178.445 115.268C179.285 114.793 180.231 114.556 181.281 114.556C182.283 114.556 183.05 114.777 183.583 115.219C184.116 115.644 184.383 116.233 184.383 116.986C184.383 117.166 184.367 117.329 184.335 117.477C184.302 117.624 184.23 117.698 184.116 117.698H181.79C181.822 116.928 181.733 116.299 181.523 115.808C181.313 115.3 180.933 115.047 180.384 115.047C179.738 115.047 179.213 115.39 178.809 116.078C178.405 116.749 178.203 117.648 178.203 118.777C178.203 119.694 178.348 120.495 178.639 121.183C178.93 121.87 179.35 122.402 179.899 122.778C180.449 123.154 181.111 123.342 181.887 123.342C182.274 123.342 182.687 123.285 183.123 123.171C183.575 123.056 183.979 122.884 184.335 122.655C184.367 122.623 184.407 122.639 184.456 122.704C184.52 122.77 184.537 122.827 184.504 122.876C183.906 123.482 183.292 123.915 182.662 124.177C182.048 124.422 181.386 124.545 180.675 124.545ZM177.355 117.747L177.33 117.28L182.638 117.158V117.698L177.355 117.747Z" fill="#A1833F"/>
<path d="M192.574 124.251C192.526 124.251 192.501 124.201 192.501 124.103C192.501 124.005 192.526 123.956 192.574 123.956C193.075 123.956 193.414 123.842 193.592 123.612C193.77 123.367 193.859 122.917 193.859 122.263V118.728C193.859 117.845 193.697 117.19 193.374 116.765C193.067 116.339 192.574 116.127 191.896 116.127C191.411 116.127 190.91 116.249 190.393 116.495C189.892 116.74 189.488 117.076 189.181 117.501L189.06 117.207C189.625 116.389 190.264 115.734 190.975 115.243C191.685 114.736 192.461 114.482 193.301 114.482C194.206 114.482 194.901 114.769 195.386 115.341C195.886 115.914 196.137 116.65 196.137 117.55V122.263C196.137 122.917 196.226 123.367 196.403 123.612C196.597 123.842 196.945 123.956 197.446 123.956C197.494 123.956 197.518 124.005 197.518 124.103C197.518 124.201 197.494 124.251 197.446 124.251C197.122 124.251 196.751 124.242 196.331 124.226C195.911 124.21 195.466 124.201 194.998 124.201C194.545 124.201 194.109 124.21 193.689 124.226C193.269 124.242 192.897 124.251 192.574 124.251ZM186.055 124.251C186.006 124.251 185.982 124.201 185.982 124.103C185.982 124.005 186.006 123.956 186.055 123.956C186.555 123.956 186.895 123.842 187.073 123.612C187.25 123.367 187.339 122.917 187.339 122.263V117.648C187.339 117.141 187.283 116.773 187.169 116.544C187.056 116.299 186.862 116.176 186.588 116.176C186.442 116.176 186.273 116.209 186.079 116.274C185.885 116.323 185.667 116.405 185.424 116.519C185.36 116.552 185.311 116.519 185.279 116.421C185.247 116.323 185.247 116.266 185.279 116.249L188.648 114.581C188.745 114.548 188.801 114.531 188.818 114.531C188.995 114.531 189.173 114.728 189.351 115.12C189.528 115.513 189.617 116.078 189.617 116.814V122.263C189.617 122.917 189.706 123.367 189.884 123.612C190.078 123.842 190.425 123.956 190.926 123.956C190.975 123.956 190.999 124.005 190.999 124.103C190.999 124.201 190.975 124.251 190.926 124.251C190.603 124.251 190.231 124.242 189.811 124.226C189.391 124.21 188.947 124.201 188.478 124.201C188.026 124.201 187.59 124.21 187.169 124.226C186.749 124.242 186.378 124.251 186.055 124.251Z" fill="#A1833F"/>
<path d="M204.056 124.251C204.024 124.251 204.007 124.201 204.007 124.103C204.007 124.005 204.024 123.956 204.056 123.956C204.557 123.956 204.896 123.842 205.074 123.612C205.268 123.367 205.365 122.917 205.365 122.263V109.795C205.365 109.238 205.316 108.837 205.219 108.592C205.122 108.33 204.936 108.199 204.662 108.199C204.436 108.199 204.129 108.289 203.741 108.469C203.692 108.486 203.644 108.445 203.595 108.347C203.547 108.248 203.539 108.191 203.571 108.175L207.11 106.481C207.158 106.465 207.199 106.457 207.231 106.457C207.312 106.457 207.392 106.498 207.473 106.579C207.57 106.645 207.619 106.71 207.619 106.776V122.263C207.619 122.917 207.707 123.367 207.885 123.612C208.079 123.842 208.427 123.956 208.927 123.956C208.992 123.956 209.024 124.005 209.024 124.103C209.024 124.201 208.992 124.251 208.927 124.251C208.604 124.251 208.233 124.242 207.813 124.226C207.409 124.21 206.972 124.201 206.504 124.201C206.035 124.201 205.591 124.21 205.171 124.226C204.751 124.242 204.379 124.251 204.056 124.251ZM210.163 124.251C210.115 124.251 210.091 124.201 210.091 124.103C210.091 124.005 210.115 123.956 210.163 123.956C210.6 123.956 210.874 123.858 210.987 123.662C211.101 123.465 211.052 123.228 210.842 122.95L207.909 119.146L209.558 117.869L212.951 122.263C213.419 122.868 213.864 123.302 214.284 123.563C214.72 123.825 215.156 123.956 215.592 123.956C215.641 123.956 215.665 124.005 215.665 124.103C215.665 124.201 215.641 124.251 215.592 124.251C215.269 124.251 214.898 124.242 214.478 124.226C214.057 124.21 213.613 124.201 213.145 124.201C212.498 124.201 211.933 124.21 211.448 124.226C210.979 124.242 210.551 124.251 210.163 124.251ZM206.746 120.594L206.601 120.201L209.873 117.01C210.325 116.585 210.527 116.159 210.479 115.734C210.446 115.292 210.147 115.071 209.582 115.071C209.549 115.071 209.533 115.022 209.533 114.924C209.533 114.826 209.549 114.777 209.582 114.777C210.002 114.777 210.422 114.785 210.842 114.801C211.278 114.818 211.86 114.826 212.587 114.826C213.25 114.826 213.775 114.818 214.162 114.801C214.566 114.785 214.946 114.777 215.302 114.777C215.35 114.777 215.374 114.826 215.374 114.924C215.374 115.022 215.35 115.071 215.302 115.071C214.898 115.071 214.413 115.145 213.847 115.292C213.298 115.423 212.732 115.644 212.151 115.955C211.569 116.249 211.02 116.642 210.503 117.133L206.746 120.594Z" fill="#A1833F"/>
<path d="M220.77 124.57C219.752 124.57 218.872 124.332 218.128 123.858C217.385 123.383 216.811 122.753 216.408 121.968C216.004 121.166 215.802 120.307 215.802 119.391C215.802 118.54 215.963 117.804 216.286 117.182C216.609 116.56 217.038 116.053 217.571 115.66C218.104 115.251 218.686 114.949 219.316 114.752C219.946 114.556 220.568 114.458 221.182 114.458C222.216 114.458 223.097 114.703 223.824 115.194C224.567 115.685 225.133 116.315 225.52 117.084C225.908 117.853 226.102 118.671 226.102 119.538C226.102 120.536 225.852 121.42 225.351 122.189C224.866 122.942 224.22 123.531 223.412 123.956C222.604 124.365 221.723 124.57 220.77 124.57ZM221.497 124.054C222.143 124.054 222.628 123.735 222.951 123.097C223.274 122.459 223.436 121.559 223.436 120.397C223.436 119.203 223.283 118.205 222.976 117.403C222.685 116.601 222.305 115.996 221.836 115.587C221.368 115.178 220.875 114.973 220.358 114.973C219.728 114.973 219.243 115.26 218.904 115.832C218.581 116.405 218.419 117.288 218.419 118.483C218.419 119.596 218.556 120.577 218.831 121.428C219.106 122.263 219.477 122.909 219.946 123.367C220.415 123.825 220.932 124.054 221.497 124.054Z" fill="#A1833F"/>
<path d="M240.408 124.251C240.359 124.251 240.335 124.201 240.335 124.103C240.335 124.005 240.359 123.956 240.408 123.956C240.909 123.956 241.248 123.842 241.426 123.612C241.62 123.367 241.716 122.917 241.716 122.263V118.728C241.716 116.994 241.111 116.127 239.899 116.127C239.398 116.127 238.913 116.249 238.445 116.495C237.976 116.74 237.596 117.076 237.305 117.501L237.184 117.207C237.734 116.389 238.348 115.734 239.026 115.243C239.721 114.736 240.472 114.482 241.28 114.482C242.137 114.482 242.799 114.736 243.268 115.243C243.736 115.734 243.97 116.503 243.97 117.55V122.263C243.97 122.917 244.059 123.367 244.237 123.612C244.431 123.842 244.778 123.956 245.279 123.956C245.344 123.956 245.376 124.005 245.376 124.103C245.376 124.201 245.344 124.251 245.279 124.251C244.956 124.251 244.584 124.242 244.164 124.226C243.744 124.21 243.3 124.201 242.831 124.201C242.379 124.201 241.943 124.21 241.523 124.226C241.102 124.242 240.731 124.251 240.408 124.251ZM234.058 124.251C234.009 124.251 233.985 124.201 233.985 124.103C233.985 124.005 234.009 123.956 234.058 123.956C234.559 123.956 234.898 123.842 235.076 123.612C235.27 123.367 235.367 122.917 235.367 122.263V118.728C235.367 116.994 234.761 116.127 233.549 116.127C233.048 116.127 232.563 116.249 232.095 116.495C231.626 116.74 231.246 117.076 230.956 117.501L230.834 117.207C231.384 116.389 231.998 115.734 232.676 115.243C233.371 114.736 234.122 114.482 234.93 114.482C235.787 114.482 236.449 114.72 236.918 115.194C237.386 115.669 237.62 116.364 237.62 117.28V122.263C237.62 122.917 237.709 123.367 237.887 123.612C238.081 123.842 238.428 123.956 238.929 123.956C238.994 123.956 239.026 124.005 239.026 124.103C239.026 124.201 238.994 124.251 238.929 124.251C238.606 124.251 238.234 124.242 237.814 124.226C237.394 124.21 236.95 124.201 236.481 124.201C236.029 124.201 235.593 124.21 235.173 124.226C234.753 124.242 234.381 124.251 234.058 124.251ZM227.829 124.251C227.781 124.251 227.756 124.201 227.756 124.103C227.756 124.005 227.781 123.956 227.829 123.956C228.33 123.956 228.669 123.842 228.847 123.612C229.025 123.367 229.114 122.917 229.114 122.263V117.648C229.114 117.141 229.057 116.773 228.944 116.544C228.831 116.299 228.637 116.176 228.362 116.176C228.217 116.176 228.047 116.209 227.853 116.274C227.659 116.323 227.441 116.405 227.199 116.519C227.134 116.552 227.086 116.519 227.053 116.421C227.021 116.323 227.021 116.266 227.053 116.249L230.422 114.581C230.519 114.548 230.576 114.531 230.592 114.531C230.77 114.531 230.947 114.728 231.125 115.12C231.303 115.513 231.392 116.078 231.392 116.814V122.263C231.392 122.917 231.481 123.367 231.658 123.612C231.852 123.842 232.2 123.956 232.701 123.956C232.749 123.956 232.773 124.005 232.773 124.103C232.773 124.201 232.749 124.251 232.701 124.251C232.377 124.251 232.006 124.242 231.586 124.226C231.166 124.21 230.721 124.201 230.253 124.201C229.8 124.201 229.364 124.21 228.944 124.226C228.524 124.242 228.152 124.251 227.829 124.251Z" fill="#A1833F"/>
<path d="M246.354 131C246.305 131 246.281 130.951 246.281 130.853C246.281 130.755 246.305 130.705 246.354 130.705C246.919 130.705 247.283 130.599 247.445 130.386C247.622 130.174 247.711 129.716 247.711 129.012V117.648C247.711 117.141 247.655 116.773 247.541 116.544C247.428 116.299 247.226 116.176 246.936 116.176C246.806 116.176 246.645 116.209 246.451 116.274C246.257 116.323 246.047 116.405 245.821 116.519C245.756 116.552 245.7 116.519 245.651 116.421C245.603 116.323 245.594 116.266 245.627 116.249L249.068 114.556C249.101 114.54 249.141 114.531 249.19 114.531C249.367 114.531 249.537 114.728 249.698 115.12C249.876 115.513 249.965 116.078 249.965 116.814V129.012C249.965 129.47 250.014 129.822 250.111 130.067C250.224 130.313 250.434 130.476 250.741 130.558C251.048 130.656 251.508 130.705 252.122 130.705C252.171 130.705 252.195 130.755 252.195 130.853C252.195 130.951 252.171 131 252.122 131C251.67 131 251.161 130.992 250.595 130.975C250.03 130.959 249.432 130.951 248.802 130.951C248.349 130.951 247.905 130.959 247.469 130.975C247.049 130.992 246.677 131 246.354 131ZM252.049 124.57C251.419 124.57 250.878 124.521 250.426 124.422C249.989 124.324 249.464 124.169 248.85 123.956L249.698 122.41C250.054 122.852 250.434 123.22 250.838 123.514C251.258 123.809 251.815 123.956 252.51 123.956C253.269 123.956 253.867 123.621 254.303 122.95C254.74 122.279 254.958 121.207 254.958 119.735C254.958 118.426 254.659 117.452 254.061 116.814C253.463 116.159 252.76 115.832 251.952 115.832C251.355 115.832 250.838 115.988 250.401 116.299C249.965 116.609 249.537 117.002 249.117 117.477L248.874 117.182C249.699 116.217 250.482 115.521 251.225 115.096C251.985 114.671 252.76 114.458 253.552 114.458C254.231 114.458 254.861 114.638 255.443 114.998C256.024 115.341 256.493 115.849 256.848 116.519C257.22 117.19 257.406 118.008 257.406 118.974C257.406 120.021 257.236 120.905 256.897 121.624C256.574 122.344 256.145 122.925 255.612 123.367C255.079 123.792 254.497 124.095 253.867 124.275C253.253 124.471 252.647 124.57 252.049 124.57Z" fill="#A1833F"/>
<path d="M262.052 117.599L261.858 117.28C262.488 116.544 263.021 115.979 263.457 115.587C263.894 115.194 264.265 114.924 264.572 114.777C264.879 114.613 265.154 114.531 265.396 114.531C265.736 114.531 266.083 114.662 266.438 114.924C266.81 115.17 266.996 115.497 266.996 115.906C266.996 116.249 266.891 116.536 266.681 116.765C266.487 116.978 266.212 117.084 265.857 117.084C265.517 117.084 265.259 116.994 265.081 116.814C264.92 116.634 264.766 116.462 264.621 116.299C264.491 116.119 264.298 116.029 264.039 116.029C263.926 116.029 263.797 116.069 263.651 116.151C263.522 116.217 263.328 116.364 263.07 116.593C262.827 116.806 262.488 117.141 262.052 117.599ZM259.095 124.251C259.046 124.251 259.022 124.201 259.022 124.103C259.022 124.005 259.046 123.956 259.095 123.956C259.596 123.956 259.935 123.842 260.113 123.612C260.29 123.367 260.379 122.917 260.379 122.263V117.648C260.379 117.141 260.323 116.773 260.21 116.544C260.097 116.299 259.903 116.176 259.628 116.176C259.483 116.176 259.313 116.209 259.119 116.274C258.925 116.323 258.707 116.405 258.465 116.519C258.4 116.552 258.352 116.519 258.319 116.421C258.287 116.323 258.287 116.266 258.319 116.249L261.688 114.581C261.785 114.548 261.842 114.531 261.858 114.531C262.035 114.531 262.213 114.728 262.391 115.12C262.569 115.513 262.658 116.078 262.658 116.814V122.263C262.658 122.688 262.722 123.032 262.851 123.293C262.981 123.539 263.199 123.711 263.506 123.809C263.829 123.907 264.265 123.956 264.815 123.956C264.879 123.956 264.911 124.005 264.911 124.103C264.911 124.201 264.879 124.251 264.815 124.251C264.378 124.251 263.877 124.242 263.312 124.226C262.763 124.21 262.165 124.201 261.518 124.201C261.066 124.201 260.63 124.21 260.21 124.226C259.79 124.242 259.418 124.251 259.095 124.251Z" fill="#A1833F"/>
<path d="M272.793 124.57C271.775 124.57 270.894 124.332 270.151 123.858C269.408 123.383 268.834 122.753 268.43 121.968C268.026 121.166 267.824 120.307 267.824 119.391C267.824 118.54 267.986 117.804 268.309 117.182C268.632 116.56 269.06 116.053 269.594 115.66C270.127 115.251 270.708 114.949 271.339 114.752C271.969 114.556 272.591 114.458 273.205 114.458C274.239 114.458 275.12 114.703 275.847 115.194C276.59 115.685 277.155 116.315 277.543 117.084C277.931 117.853 278.125 118.671 278.125 119.538C278.125 120.536 277.874 121.42 277.374 122.189C276.889 122.942 276.242 123.531 275.435 123.956C274.627 124.365 273.746 124.57 272.793 124.57ZM273.52 124.054C274.166 124.054 274.651 123.735 274.974 123.097C275.297 122.459 275.459 121.559 275.459 120.397C275.459 119.203 275.305 118.205 274.998 117.403C274.708 116.601 274.328 115.996 273.859 115.587C273.391 115.178 272.898 114.973 272.381 114.973C271.751 114.973 271.266 115.26 270.927 115.832C270.603 116.405 270.442 117.288 270.442 118.483C270.442 119.596 270.579 120.577 270.854 121.428C271.129 122.263 271.5 122.909 271.969 123.367C272.437 123.825 272.954 124.054 273.52 124.054Z" fill="#A1833F"/>
<path d="M292.43 124.251C292.382 124.251 292.358 124.201 292.358 124.103C292.358 124.005 292.382 123.956 292.43 123.956C292.931 123.956 293.271 123.842 293.448 123.612C293.642 123.367 293.739 122.917 293.739 122.263V118.728C293.739 116.994 293.133 116.127 291.922 116.127C291.421 116.127 290.936 116.249 290.467 116.495C289.999 116.74 289.619 117.076 289.328 117.501L289.207 117.207C289.756 116.389 290.37 115.734 291.049 115.243C291.744 114.736 292.495 114.482 293.303 114.482C294.159 114.482 294.822 114.736 295.29 115.243C295.759 115.734 295.993 116.503 295.993 117.55V122.263C295.993 122.917 296.082 123.367 296.26 123.612C296.454 123.842 296.801 123.956 297.302 123.956C297.367 123.956 297.399 124.005 297.399 124.103C297.399 124.201 297.367 124.251 297.302 124.251C296.979 124.251 296.607 124.242 296.187 124.226C295.767 124.21 295.323 124.201 294.854 124.201C294.402 124.201 293.965 124.21 293.545 124.226C293.125 124.242 292.754 124.251 292.43 124.251ZM286.081 124.251C286.032 124.251 286.008 124.201 286.008 124.103C286.008 124.005 286.032 123.956 286.081 123.956C286.581 123.956 286.921 123.842 287.099 123.612C287.292 123.367 287.389 122.917 287.389 122.263V118.728C287.389 116.994 286.783 116.127 285.572 116.127C285.071 116.127 284.586 116.249 284.117 116.495C283.649 116.74 283.269 117.076 282.978 117.501L282.857 117.207C283.406 116.389 284.021 115.734 284.699 115.243C285.394 114.736 286.145 114.482 286.953 114.482C287.809 114.482 288.472 114.72 288.94 115.194C289.409 115.669 289.643 116.364 289.643 117.28V122.263C289.643 122.917 289.732 123.367 289.91 123.612C290.104 123.842 290.451 123.956 290.952 123.956C291.017 123.956 291.049 124.005 291.049 124.103C291.049 124.201 291.017 124.251 290.952 124.251C290.629 124.251 290.257 124.242 289.837 124.226C289.417 124.21 288.973 124.201 288.504 124.201C288.052 124.201 287.616 124.21 287.195 124.226C286.775 124.242 286.404 124.251 286.081 124.251ZM279.852 124.251C279.803 124.251 279.779 124.201 279.779 124.103C279.779 124.005 279.803 123.956 279.852 123.956C280.353 123.956 280.692 123.842 280.87 123.612C281.048 123.367 281.136 122.917 281.136 122.263V117.648C281.136 117.141 281.08 116.773 280.967 116.544C280.854 116.299 280.66 116.176 280.385 116.176C280.24 116.176 280.07 116.209 279.876 116.274C279.682 116.323 279.464 116.405 279.222 116.519C279.157 116.552 279.109 116.519 279.076 116.421C279.044 116.323 279.044 116.266 279.076 116.249L282.445 114.581C282.542 114.548 282.599 114.531 282.615 114.531C282.793 114.531 282.97 114.728 283.148 115.12C283.326 115.513 283.415 116.078 283.415 116.814V122.263C283.415 122.917 283.503 123.367 283.681 123.612C283.875 123.842 284.222 123.956 284.723 123.956C284.772 123.956 284.796 124.005 284.796 124.103C284.796 124.201 284.772 124.251 284.723 124.251C284.4 124.251 284.029 124.242 283.608 124.226C283.188 124.21 282.744 124.201 282.275 124.201C281.823 124.201 281.387 124.21 280.967 124.226C280.547 124.242 280.175 124.251 279.852 124.251Z" fill="#A1833F"/>
<path d="M298.692 124.251C298.643 124.251 298.619 124.201 298.619 124.103C298.619 124.005 298.643 123.956 298.692 123.956C299.193 123.956 299.532 123.842 299.71 123.612C299.887 123.367 299.976 122.917 299.976 122.263V117.869C299.976 117.329 299.92 116.937 299.807 116.691C299.71 116.429 299.524 116.299 299.249 116.299C299.136 116.299 298.999 116.323 298.837 116.372C298.692 116.421 298.53 116.487 298.352 116.569C298.288 116.585 298.231 116.544 298.183 116.446C298.15 116.348 298.159 116.29 298.207 116.274L301.867 114.556C301.899 114.54 301.923 114.531 301.939 114.531C302.02 114.531 302.101 114.572 302.182 114.654C302.263 114.736 302.303 114.81 302.303 114.875C302.303 115.071 302.295 115.399 302.279 115.857C302.263 116.315 302.255 116.969 302.255 117.82V122.263C302.255 122.917 302.343 123.367 302.521 123.612C302.715 123.842 303.062 123.956 303.563 123.956C303.612 123.956 303.636 124.005 303.636 124.103C303.636 124.201 303.612 124.251 303.563 124.251C303.24 124.251 302.868 124.242 302.448 124.226C302.028 124.21 301.584 124.201 301.115 124.201C300.663 124.201 300.227 124.21 299.807 124.226C299.387 124.242 299.015 124.251 298.692 124.251ZM301.018 112.102C300.566 112.102 300.203 111.971 299.928 111.709C299.669 111.447 299.54 111.079 299.54 110.604C299.54 110.179 299.669 109.844 299.928 109.598C300.203 109.336 300.566 109.206 301.018 109.206C301.471 109.206 301.818 109.336 302.061 109.598C302.303 109.844 302.424 110.179 302.424 110.604C302.424 111.603 301.956 112.102 301.018 112.102Z" fill="#A1833F"/>
<path d="M306.973 115.955C306.973 116.299 307.062 116.609 307.24 116.888C307.434 117.149 307.676 117.395 307.967 117.624C308.258 117.837 308.573 118.049 308.912 118.262C309.316 118.491 309.712 118.737 310.1 118.998C310.487 119.244 310.811 119.546 311.069 119.906C311.328 120.266 311.457 120.733 311.457 121.305C311.457 121.829 311.32 122.344 311.045 122.852C310.786 123.342 310.391 123.743 309.857 124.054C309.324 124.365 308.654 124.521 307.846 124.521C307.442 124.521 307.038 124.471 306.634 124.373C306.23 124.291 305.794 124.12 305.325 123.858C305.293 123.825 305.26 123.784 305.228 123.735C305.196 123.686 305.18 123.629 305.18 123.563L305.131 121.134C305.131 121.084 305.172 121.06 305.252 121.06C305.349 121.044 305.406 121.052 305.422 121.084C305.6 121.608 305.85 122.099 306.173 122.557C306.497 122.999 306.86 123.359 307.264 123.637C307.684 123.899 308.104 124.03 308.524 124.03C308.847 124.03 309.114 123.932 309.324 123.735C309.534 123.522 309.639 123.203 309.639 122.778C309.639 122.32 309.534 121.944 309.324 121.649C309.13 121.338 308.88 121.076 308.573 120.864C308.266 120.635 307.951 120.43 307.628 120.25C307.256 120.037 306.884 119.816 306.513 119.587C306.141 119.358 305.834 119.072 305.592 118.728C305.349 118.368 305.228 117.902 305.228 117.329C305.228 116.642 305.398 116.094 305.737 115.685C306.076 115.276 306.513 114.981 307.046 114.801C307.595 114.621 308.161 114.531 308.742 114.531C309.098 114.531 309.421 114.556 309.712 114.605C310.019 114.654 310.366 114.752 310.754 114.9C310.899 114.949 310.972 115.039 310.972 115.17C310.972 115.497 310.964 115.84 310.948 116.2C310.932 116.544 310.924 116.928 310.924 117.354C310.924 117.403 310.875 117.428 310.778 117.428C310.681 117.428 310.633 117.403 310.633 117.354C310.633 117.043 310.504 116.708 310.245 116.348C310.003 115.988 309.68 115.677 309.276 115.415C308.872 115.137 308.435 114.998 307.967 114.998C307.741 114.998 307.514 115.055 307.288 115.17C307.078 115.284 306.973 115.546 306.973 115.955Z" fill="#A1833F"/>
</svg>
