<svg width="75" height="28" viewBox="0 0 75 28" fill="none" xmlns="http://www.w3.org/2000/svg">
<path d="M17.8234 9.17508C17.8234 8.87082 17.793 8.64 17.7322 8.48262C17.6816 8.32524 17.5651 8.21508 17.3829 8.15213C17.2006 8.08918 16.9272 8.0577 16.5626 8.0577C16.5322 8.0577 16.517 8.02623 16.517 7.96328C16.517 7.90033 16.5322 7.86885 16.5626 7.86885C16.8259 7.86885 17.1246 7.87934 17.4588 7.90033C17.8031 7.91082 18.2082 7.91606 18.674 7.91606C19.0385 7.91606 19.398 7.91082 19.7525 7.90033C20.117 7.87934 20.431 7.86885 20.6942 7.86885C20.7246 7.86885 20.7398 7.90033 20.7398 7.96328C20.7398 8.02623 20.7246 8.0577 20.6942 8.0577C20.3601 8.0577 20.1069 8.08918 19.9347 8.15213C19.7626 8.20459 19.6461 8.30951 19.5854 8.46688C19.5348 8.61377 19.5094 8.83934 19.5094 9.14361V16.4302C19.5094 16.7344 19.5348 16.9652 19.5854 17.1226C19.6461 17.28 19.7626 17.3849 19.9347 17.4374C20.1069 17.4898 20.3601 17.5161 20.6942 17.5161C20.7246 17.5161 20.7398 17.5475 20.7398 17.6105C20.7398 17.6734 20.7246 17.7049 20.6942 17.7049C20.431 17.7049 20.117 17.6997 19.7525 17.6892C19.398 17.6787 19.0385 17.6734 18.674 17.6734C18.2082 17.6734 17.8031 17.6787 17.4588 17.6892C17.1246 17.6997 16.8259 17.7049 16.5626 17.7049C16.5322 17.7049 16.517 17.6734 16.517 17.6105C16.517 17.5475 16.5322 17.5161 16.5626 17.5161C16.9272 17.5161 17.2006 17.4898 17.3829 17.4374C17.5651 17.3849 17.6816 17.28 17.7322 17.1226C17.793 16.9652 17.8234 16.7344 17.8234 16.4302V9.17508ZM12.0208 12.8105V12.3698H18.598V12.8105H12.0208ZM11.231 16.4302V9.14361C11.231 8.83934 11.2006 8.61377 11.1398 8.46688C11.0892 8.30951 10.9778 8.20459 10.8056 8.15213C10.6436 8.08918 10.3955 8.0577 10.0613 8.0577C10.031 8.0577 10.0158 8.02623 10.0158 7.96328C10.0158 7.90033 10.031 7.86885 10.0613 7.86885C10.3246 7.86885 10.6234 7.87934 10.9575 7.90033C11.2917 7.91082 11.6411 7.91606 12.0056 7.91606C12.4715 7.91606 12.8765 7.91082 13.2208 7.90033C13.5753 7.87934 13.8942 7.86885 14.1778 7.86885C14.198 7.86885 14.2082 7.90033 14.2082 7.96328C14.2082 8.02623 14.198 8.0577 14.1778 8.0577C13.8234 8.0577 13.555 8.08918 13.3727 8.15213C13.1904 8.21508 13.0689 8.32524 13.0082 8.48262C12.9474 8.64 12.917 8.87082 12.917 9.17508V16.4302C12.917 16.7344 12.9474 16.9652 13.0082 17.1226C13.0689 17.28 13.1904 17.3849 13.3727 17.4374C13.555 17.4898 13.8234 17.5161 14.1778 17.5161C14.198 17.5161 14.2082 17.5475 14.2082 17.6105C14.2082 17.6734 14.198 17.7049 14.1778 17.7049C13.8841 17.7049 13.5651 17.6997 13.2208 17.6892C12.8765 17.6787 12.4715 17.6734 12.0056 17.6734C11.6411 17.6734 11.2866 17.6787 10.9423 17.6892C10.598 17.6997 10.2942 17.7049 10.031 17.7049C10.0107 17.7049 10.0006 17.6734 10.0006 17.6105C10.0006 17.5475 10.0107 17.5161 10.031 17.5161C10.3753 17.5161 10.6284 17.4898 10.7904 17.4374C10.9626 17.3849 11.0791 17.28 11.1398 17.1226C11.2006 16.9652 11.231 16.7344 11.231 16.4302Z" fill="black"/>
<path d="M26.0209 17.7993C25.9804 17.8203 25.9298 17.8308 25.869 17.8308C25.6867 17.8308 25.5045 17.7049 25.3222 17.4531C25.1399 17.2013 25.0488 16.8393 25.0488 16.3672V13.6918C25.0488 13.2826 25.0234 12.9416 24.9728 12.6689C24.9222 12.3961 24.8412 12.1915 24.7298 12.0551C24.6184 11.9187 24.4665 11.8505 24.2741 11.8505C24.1222 11.8505 23.9855 11.8925 23.8639 11.9764C23.7424 12.0498 23.6462 12.1757 23.5753 12.3541C23.5044 12.522 23.4589 12.758 23.4386 13.0623C23.4082 13.3666 23.3171 13.5921 23.1652 13.739C23.0133 13.8754 22.8057 13.9436 22.5424 13.9436C22.2893 13.9436 22.107 13.8859 21.9956 13.7705C21.8842 13.6551 21.8285 13.4977 21.8285 13.2984C21.8285 13.0675 21.9348 12.8472 22.1475 12.6374C22.3601 12.417 22.6234 12.2229 22.9374 12.0551C23.2614 11.8767 23.5956 11.7403 23.9399 11.6459C24.2842 11.541 24.5931 11.4885 24.8665 11.4885C25.312 11.4885 25.6918 11.6302 26.0057 11.9134C26.3196 12.1862 26.4766 12.6216 26.4766 13.2197V16.0052C26.4766 16.3095 26.5272 16.5456 26.6285 16.7134C26.7399 16.8813 26.8918 16.9652 27.0842 16.9652C27.226 16.9652 27.3728 16.9285 27.5247 16.8551C27.5652 16.8341 27.5956 16.8551 27.6158 16.918C27.6462 16.9705 27.6361 17.0072 27.5855 17.0282L26.0209 17.7993ZM22.831 17.8151C22.5171 17.8151 22.2639 17.7311 22.0715 17.5633C21.8791 17.3849 21.7829 17.1331 21.7829 16.8079C21.7829 16.4302 21.9196 16.1626 22.1931 16.0052C22.4766 15.8374 22.912 15.6538 23.4994 15.4544L25.2007 14.8879L25.2614 15.1239L24.2133 15.5174C23.9399 15.6223 23.7424 15.7377 23.6209 15.8636C23.5095 15.9895 23.4538 16.1416 23.4538 16.32C23.4538 16.5403 23.5146 16.7134 23.6361 16.8393C23.7576 16.9652 23.9095 17.0282 24.0918 17.0282C24.1728 17.0282 24.2791 17.0125 24.4108 16.981C24.5526 16.939 24.7045 16.8813 24.8665 16.8079L25.7019 16.3357L25.7171 16.6033L24.4108 17.343C24.1576 17.4793 23.8893 17.5948 23.6057 17.6892C23.3222 17.7731 23.0639 17.8151 22.831 17.8151Z" fill="black"/>
<path d="M34.2869 11.6302C34.3072 11.6302 34.3173 11.6616 34.3173 11.7246C34.3173 11.7875 34.3072 11.819 34.2869 11.819C33.9933 11.819 33.73 11.9344 33.4971 12.1652C33.2743 12.3961 33.0616 12.7528 32.8591 13.2354L30.9907 17.7049C30.9705 17.7574 30.9148 17.7836 30.8236 17.7836C30.7426 17.7836 30.6869 17.7574 30.6565 17.7049L28.3325 12.9364C28.1097 12.4538 27.9173 12.1495 27.7553 12.0236C27.5933 11.8872 27.4009 11.819 27.1781 11.819C27.1477 11.819 27.1325 11.7875 27.1325 11.7246C27.1325 11.6616 27.1477 11.6302 27.1781 11.6302C27.3502 11.6302 27.5426 11.6354 27.7553 11.6459C27.9781 11.6564 28.2768 11.6616 28.6515 11.6616C29.0667 11.6616 29.4211 11.6564 29.7148 11.6459C30.0084 11.6354 30.2819 11.6302 30.535 11.6302C30.5654 11.6302 30.5806 11.6616 30.5806 11.7246C30.5806 11.7875 30.5654 11.819 30.535 11.819C30.2211 11.819 29.9781 11.861 29.8059 11.9449C29.6338 12.0289 29.6084 12.1915 29.73 12.4328L31.5527 15.9895L30.7781 17.3744L32.4338 13.2197C32.6059 12.7895 32.6059 12.4485 32.4338 12.1967C32.2717 11.9449 31.9882 11.819 31.5831 11.819C31.5629 11.819 31.5527 11.7875 31.5527 11.7246C31.5527 11.6616 31.5629 11.6302 31.5831 11.6302C31.8262 11.6302 32.054 11.6354 32.2667 11.6459C32.4895 11.6564 32.773 11.6616 33.1173 11.6616C33.3603 11.6616 33.5578 11.6564 33.7097 11.6459C33.8717 11.6354 34.0641 11.6302 34.2869 11.6302Z" fill="black"/>
<path d="M38.1517 17.9095C37.7162 17.9095 37.2909 17.8308 36.8757 17.6734C36.4605 17.5056 36.0859 17.2643 35.7517 16.9495L36.7238 15.1082C36.7238 15.7272 36.8251 16.2203 37.0276 16.5875C37.2302 16.9548 37.4732 17.217 37.7567 17.3744C38.0403 17.5213 38.2935 17.5948 38.5162 17.5948C38.9618 17.5948 39.296 17.3639 39.5188 16.9023C39.7517 16.4407 39.8681 15.7954 39.8681 14.9666C39.8681 14.0223 39.7162 13.3351 39.4124 12.9049C39.1086 12.4748 38.7036 12.2597 38.1973 12.2597C37.8833 12.2597 37.5846 12.3279 37.301 12.4643C37.0175 12.6007 36.7593 12.7633 36.5264 12.9521L36.3897 12.8262C36.6023 12.6059 36.8251 12.3908 37.058 12.181C37.301 11.9607 37.5745 11.7823 37.8783 11.6459C38.1821 11.499 38.5264 11.4256 38.9112 11.4256C39.3567 11.4256 39.7669 11.5357 40.1416 11.7561C40.5264 11.9659 40.8352 12.2859 41.0681 12.7161C41.3112 13.1462 41.4327 13.6918 41.4327 14.3528C41.4327 15.1397 41.2707 15.8007 40.9466 16.3357C40.6327 16.8603 40.2276 17.2538 39.7314 17.5161C39.2352 17.7784 38.7086 17.9095 38.1517 17.9095ZM34.6276 17.8151C34.5871 17.8256 34.5567 17.8046 34.5365 17.7521C34.5162 17.7102 34.5264 17.6839 34.5669 17.6734C34.7998 17.5266 34.9821 17.3325 35.1137 17.0911C35.2453 16.8393 35.3112 16.5036 35.3112 16.0839V8.43541C35.3112 8.07869 35.2757 7.82164 35.2048 7.66426C35.1441 7.49639 35.0276 7.41246 34.8555 7.41246C34.7238 7.41246 34.5365 7.47016 34.2935 7.58557C34.2529 7.59607 34.2175 7.56984 34.1871 7.50689C34.1669 7.44393 34.1669 7.40721 34.1871 7.39672L36.4048 6.31082C36.4352 6.30033 36.4605 6.29508 36.4808 6.29508C36.5314 6.29508 36.5821 6.32131 36.6327 6.37377C36.6935 6.41574 36.7238 6.4577 36.7238 6.49967V16.8236L34.6276 17.8151Z" fill="black"/>
<path d="M42.4447 17.7049C42.4245 17.7049 42.4143 17.6734 42.4143 17.6105C42.4143 17.5475 42.4245 17.5161 42.4447 17.5161C42.7586 17.5161 42.9713 17.4426 43.0827 17.2957C43.2042 17.1384 43.265 16.8498 43.265 16.4302L43.2802 8.43541C43.2802 8.07869 43.2498 7.82164 43.189 7.66426C43.1283 7.49639 43.0118 7.41246 42.8397 7.41246C42.708 7.41246 42.5156 7.47016 42.2624 7.58557C42.2321 7.59607 42.2017 7.56984 42.1713 7.50689C42.1409 7.44393 42.1359 7.40721 42.1561 7.39672L44.389 6.31082C44.4093 6.30033 44.4295 6.29508 44.4498 6.29508C44.5004 6.29508 44.5561 6.32131 44.6169 6.37377C44.6776 6.41574 44.708 6.4577 44.708 6.49967V16.4302C44.708 16.8498 44.7637 17.1384 44.8751 17.2957C44.9865 17.4426 45.1992 17.5161 45.5131 17.5161C45.5536 17.5161 45.5738 17.5475 45.5738 17.6105C45.5738 17.6734 45.5536 17.7049 45.5131 17.7049C45.3207 17.7049 45.0878 17.6997 44.8143 17.6892C44.551 17.6787 44.2726 17.6734 43.9789 17.6734C43.6852 17.6734 43.4067 17.6787 43.1435 17.6892C42.8802 17.6997 42.6472 17.7049 42.4447 17.7049Z" fill="black"/>
<path d="M46.57 17.7049C46.5396 17.7049 46.5244 17.6734 46.5244 17.6105C46.5244 17.5475 46.5396 17.5161 46.57 17.5161C46.8839 17.5161 47.0965 17.4426 47.2079 17.2957C47.3193 17.1384 47.375 16.8498 47.375 16.4302V13.6131C47.375 13.2669 47.3396 13.0151 47.2687 12.8577C47.2079 12.6898 47.0915 12.6059 46.9193 12.6059C46.8484 12.6059 46.7624 12.6216 46.6611 12.6531C46.57 12.6846 46.4687 12.7266 46.3573 12.779C46.3168 12.7895 46.2813 12.7633 46.251 12.7003C46.2307 12.6374 46.2358 12.6007 46.2662 12.5902L48.5598 11.4885C48.5801 11.478 48.5953 11.4728 48.6054 11.4728C48.656 11.4728 48.7067 11.499 48.7573 11.5515C48.8079 11.6039 48.8332 11.6511 48.8332 11.6931C48.8332 11.819 48.8282 12.0289 48.8181 12.3226C48.8079 12.6164 48.8029 13.0361 48.8029 13.5816V16.4302C48.8029 16.8498 48.8586 17.1384 48.97 17.2957C49.0915 17.4426 49.3092 17.5161 49.6231 17.5161C49.6535 17.5161 49.6687 17.5475 49.6687 17.6105C49.6687 17.6734 49.6535 17.7049 49.6231 17.7049C49.4206 17.7049 49.1877 17.6997 48.9244 17.6892C48.6611 17.6787 48.3826 17.6734 48.0889 17.6734C47.8054 17.6734 47.532 17.6787 47.2687 17.6892C47.0054 17.6997 46.7725 17.7049 46.57 17.7049ZM48.0282 9.91475C47.7446 9.91475 47.5168 9.83082 47.3446 9.66295C47.1826 9.49508 47.1016 9.25902 47.1016 8.95475C47.1016 8.68197 47.1826 8.46688 47.3446 8.30951C47.5168 8.14164 47.7446 8.0577 48.0282 8.0577C48.3117 8.0577 48.5295 8.14164 48.6814 8.30951C48.8332 8.46688 48.9092 8.68197 48.9092 8.95475C48.9092 9.59475 48.6155 9.91475 48.0282 9.91475Z" fill="black"/>
<path d="M54.6463 17.7049C54.616 17.7049 54.6008 17.6734 54.6008 17.6105C54.6008 17.5475 54.616 17.5161 54.6463 17.5161C54.9603 17.5161 55.1729 17.4426 55.2843 17.2957C55.3957 17.1384 55.4514 16.8498 55.4514 16.4302V14.1639C55.4514 13.5974 55.3501 13.1777 55.1476 12.9049C54.9552 12.6321 54.6463 12.4957 54.221 12.4957C53.9172 12.4957 53.6033 12.5744 53.2793 12.7318C52.9653 12.8892 52.7122 13.1043 52.5198 13.377L52.4438 13.1882C52.7982 12.6636 53.1982 12.2439 53.6438 11.9292C54.0894 11.6039 54.5755 11.4413 55.102 11.4413C55.6691 11.4413 56.1046 11.6249 56.4084 11.9921C56.7223 12.3593 56.8792 12.8315 56.8792 13.4085V16.4302C56.8792 16.8498 56.9349 17.1384 57.0463 17.2957C57.1679 17.4426 57.3856 17.5161 57.6995 17.5161C57.7299 17.5161 57.7451 17.5475 57.7451 17.6105C57.7451 17.6734 57.7299 17.7049 57.6995 17.7049C57.497 17.7049 57.2641 17.6997 57.0008 17.6892C56.7375 17.6787 56.459 17.6734 56.1653 17.6734C55.8818 17.6734 55.6084 17.6787 55.3451 17.6892C55.0818 17.6997 54.8489 17.7049 54.6463 17.7049ZM50.5603 17.7049C50.5299 17.7049 50.5147 17.6734 50.5147 17.6105C50.5147 17.5475 50.5299 17.5161 50.5603 17.5161C50.8742 17.5161 51.0868 17.4426 51.1982 17.2957C51.3096 17.1384 51.3653 16.8498 51.3653 16.4302V13.4715C51.3653 13.1462 51.3299 12.9102 51.259 12.7633C51.1881 12.6059 51.0666 12.5272 50.8944 12.5272C50.8033 12.5272 50.697 12.5482 50.5755 12.5902C50.4539 12.6216 50.3172 12.6741 50.1653 12.7475C50.1248 12.7685 50.0944 12.7475 50.0742 12.6846C50.0539 12.6216 50.0539 12.5849 50.0742 12.5744L52.1856 11.5043C52.2463 11.4833 52.2818 11.4728 52.2919 11.4728C52.4033 11.4728 52.5147 11.5987 52.6261 11.8505C52.7375 12.1023 52.7932 12.4643 52.7932 12.9364V16.4302C52.7932 16.8498 52.8489 17.1384 52.9603 17.2957C53.0818 17.4426 53.2995 17.5161 53.6134 17.5161C53.6438 17.5161 53.659 17.5475 53.659 17.6105C53.659 17.6734 53.6438 17.7049 53.6134 17.7049C53.4109 17.7049 53.178 17.6997 52.9147 17.6892C52.6514 17.6787 52.3729 17.6734 52.0793 17.6734C51.7957 17.6734 51.5223 17.6787 51.259 17.6892C50.9957 17.6997 50.7628 17.7049 50.5603 17.7049Z" fill="black"/>
<path d="M58.2823 17.7049C58.262 17.7049 58.2519 17.6734 58.2519 17.6105C58.2519 17.5475 58.262 17.5161 58.2823 17.5161C58.5962 17.5161 58.8089 17.4426 58.9203 17.2957C59.0418 17.1384 59.1026 16.8498 59.1026 16.4302V8.43541C59.1026 8.07869 59.0722 7.82164 59.0114 7.66426C58.9506 7.49639 58.8342 7.41246 58.662 7.41246C58.5203 7.41246 58.3279 7.47016 58.0848 7.58557C58.0545 7.59607 58.0241 7.56984 57.9937 7.50689C57.9633 7.44393 57.9582 7.40721 57.9785 7.39672L60.1962 6.31082C60.2266 6.30033 60.2519 6.29508 60.2722 6.29508C60.3228 6.29508 60.3734 6.32131 60.4241 6.37377C60.4848 6.41574 60.5152 6.4577 60.5152 6.49967V16.4302C60.5152 16.8498 60.5709 17.1384 60.6823 17.2957C60.8038 17.4426 61.0215 17.5161 61.3355 17.5161C61.376 17.5161 61.3962 17.5475 61.3962 17.6105C61.3962 17.6734 61.376 17.7049 61.3355 17.7049C61.1329 17.7049 60.9 17.6997 60.6367 17.6892C60.3836 17.6787 60.1101 17.6734 59.8165 17.6734C59.5228 17.6734 59.2443 17.6787 58.981 17.6892C58.7177 17.6997 58.4848 17.7049 58.2823 17.7049ZM62.1101 17.7049C62.0798 17.7049 62.0646 17.6734 62.0646 17.6105C62.0646 17.5475 62.0798 17.5161 62.1101 17.5161C62.3836 17.5161 62.5557 17.4531 62.6266 17.3272C62.6975 17.2013 62.6671 17.0492 62.5355 16.8708L60.6975 14.4315L61.7304 13.6131L63.857 16.4302C64.1507 16.8184 64.4291 17.0964 64.6924 17.2643C64.9658 17.4321 65.2393 17.5161 65.5127 17.5161C65.5431 17.5161 65.5583 17.5475 65.5583 17.6105C65.5583 17.6734 65.5431 17.7049 65.5127 17.7049C65.3102 17.7049 65.0772 17.6997 64.8139 17.6892C64.5507 17.6787 64.2722 17.6734 63.9785 17.6734C63.5734 17.6734 63.219 17.6787 62.9152 17.6892C62.6215 17.6997 62.3532 17.7049 62.1101 17.7049ZM59.9684 15.36L59.8772 15.1082L61.9279 13.0623C62.2114 12.7895 62.338 12.5167 62.3076 12.2439C62.2874 11.9607 62.1 11.819 61.7456 11.819C61.7253 11.819 61.7152 11.7875 61.7152 11.7246C61.7152 11.6616 61.7253 11.6302 61.7456 11.6302C62.0089 11.6302 62.2722 11.6354 62.5355 11.6459C62.8089 11.6564 63.1734 11.6616 63.6291 11.6616C64.0443 11.6616 64.3734 11.6564 64.6165 11.6459C64.8696 11.6354 65.1076 11.6302 65.3304 11.6302C65.3608 11.6302 65.376 11.6616 65.376 11.7246C65.376 11.7875 65.3608 11.819 65.3304 11.819C65.0772 11.819 64.7734 11.8662 64.419 11.9607C64.0747 12.0446 63.7203 12.1862 63.3557 12.3856C62.9912 12.5744 62.6469 12.8262 62.3228 13.141L59.9684 15.36Z" fill="black"/>
<path d="M75 25.5738H67.0886V24.918H74.3671V0.655738H0.632911V24.918H7.59494V25.5738H0V0H75V25.5738Z" fill="black"/>
<path d="M10.281 24.9889L10.357 24.842H11.4L11.4354 24.9889H10.281ZM12.8076 26.4944C12.8245 26.4944 12.8329 26.5049 12.8329 26.5259C12.8329 26.5469 12.8245 26.5574 12.8076 26.5574C12.7063 26.5574 12.6 26.5539 12.4886 26.5469C12.3806 26.5399 12.2759 26.5364 12.1747 26.5364C12.0599 26.5364 11.9603 26.5399 11.8759 26.5469C11.7916 26.5539 11.697 26.5574 11.5924 26.5574C11.5789 26.5574 11.5722 26.5469 11.5722 26.5259C11.5722 26.5049 11.5789 26.4944 11.5924 26.4944C11.7308 26.4944 11.8101 26.4664 11.8304 26.4105C11.854 26.351 11.8236 26.2356 11.7392 26.0643L10.7114 23.9607L10.9595 23.5095L9.9519 25.8125C9.86076 26.0223 9.85907 26.1884 9.94684 26.3108C10.0346 26.4332 10.173 26.4944 10.362 26.4944C10.3789 26.4944 10.3873 26.5049 10.3873 26.5259C10.3873 26.5469 10.3789 26.5574 10.362 26.5574C10.2608 26.5574 10.1679 26.5539 10.0835 26.5469C9.99916 26.5399 9.89283 26.5364 9.76456 26.5364C9.63291 26.5364 9.52658 26.5399 9.44557 26.5469C9.36793 26.5539 9.27173 26.5574 9.15696 26.5574C9.14346 26.5574 9.13671 26.5469 9.13671 26.5259C9.13671 26.5049 9.14346 26.4944 9.15696 26.4944C9.2481 26.4944 9.32574 26.4752 9.38987 26.4367C9.45738 26.3948 9.52321 26.3213 9.58734 26.2164C9.65485 26.108 9.7308 25.9558 9.81519 25.76L10.9139 23.2577C10.9173 23.2472 10.9325 23.242 10.9595 23.242C10.9865 23.2385 11.0017 23.2437 11.0051 23.2577L12.2709 25.8387C12.3519 26.0031 12.4211 26.1342 12.4785 26.2321C12.5392 26.3266 12.5949 26.3948 12.6456 26.4367C12.6996 26.4752 12.7536 26.4944 12.8076 26.4944Z" fill="black"/>
<path d="M12.9788 26.5574C12.9721 26.5574 12.9687 26.5469 12.9687 26.5259C12.9687 26.5049 12.9721 26.4944 12.9788 26.4944C13.0835 26.4944 13.1544 26.4699 13.1915 26.421C13.232 26.3685 13.2523 26.2724 13.2523 26.1325L13.2573 23.4675C13.2573 23.3486 13.2472 23.263 13.2269 23.2105C13.2067 23.1545 13.1679 23.1266 13.1105 23.1266C13.0666 23.1266 13.0025 23.1458 12.9181 23.1843C12.908 23.1878 12.8978 23.179 12.8877 23.158C12.8776 23.1371 12.8759 23.1248 12.8826 23.1213L13.6269 22.7593C13.6337 22.7558 13.6404 22.7541 13.6472 22.7541C13.6641 22.7541 13.6826 22.7628 13.7029 22.7803C13.7231 22.7943 13.7333 22.8083 13.7333 22.8223V26.1325C13.7333 26.2724 13.7518 26.3685 13.789 26.421C13.8261 26.4699 13.897 26.4944 14.0016 26.4944C14.0151 26.4944 14.0219 26.5049 14.0219 26.5259C14.0219 26.5469 14.0151 26.5574 14.0016 26.5574C13.9375 26.5574 13.8598 26.5556 13.7687 26.5521C13.6809 26.5486 13.5881 26.5469 13.4902 26.5469C13.3923 26.5469 13.2995 26.5486 13.2117 26.5521C13.124 26.5556 13.0463 26.5574 12.9788 26.5574Z" fill="black"/>
<path d="M14.2628 26.5574C14.256 26.5574 14.2527 26.5469 14.2527 26.5259C14.2527 26.5049 14.256 26.4944 14.2628 26.4944C14.3674 26.4944 14.4383 26.4699 14.4754 26.421C14.5159 26.3685 14.5362 26.2724 14.5362 26.1325V23.4675C14.5362 23.3486 14.5261 23.263 14.5058 23.2105C14.4856 23.1545 14.4467 23.1266 14.3894 23.1266C14.3421 23.1266 14.278 23.1458 14.197 23.1843C14.1868 23.1878 14.1767 23.179 14.1666 23.158C14.1564 23.1371 14.1548 23.1248 14.1615 23.1213L14.9008 22.7593C14.9109 22.7558 14.9193 22.7541 14.9261 22.7541C14.9429 22.7541 14.9598 22.7628 14.9767 22.7803C14.997 22.7943 15.0071 22.8083 15.0071 22.8223V26.1325C15.0071 26.2724 15.0256 26.3685 15.0628 26.421C15.1033 26.4699 15.1759 26.4944 15.2805 26.4944C15.294 26.4944 15.3008 26.5049 15.3008 26.5259C15.3008 26.5469 15.294 26.5574 15.2805 26.5574C15.213 26.5574 15.1354 26.5556 15.0476 26.5521C14.9632 26.5486 14.8721 26.5469 14.7742 26.5469C14.6763 26.5469 14.5835 26.5486 14.4957 26.5521C14.4079 26.5556 14.3303 26.5574 14.2628 26.5574ZM15.5387 26.5574C15.5286 26.5574 15.5235 26.5469 15.5235 26.5259C15.5235 26.5049 15.5286 26.4944 15.5387 26.4944C15.6299 26.4944 15.6872 26.4734 15.7109 26.4315C15.7345 26.3895 15.7244 26.3388 15.6805 26.2793L15.0678 25.4662L15.4121 25.1934L16.121 26.1325C16.2189 26.2619 16.3117 26.3545 16.3995 26.4105C16.4906 26.4664 16.5818 26.4944 16.6729 26.4944C16.683 26.4944 16.6881 26.5049 16.6881 26.5259C16.6881 26.5469 16.683 26.5574 16.6729 26.5574C16.6054 26.5574 16.5278 26.5556 16.44 26.5521C16.3522 26.5486 16.2594 26.5469 16.1615 26.5469C16.0265 26.5469 15.9083 26.5486 15.8071 26.5521C15.7092 26.5556 15.6197 26.5574 15.5387 26.5574ZM14.8248 25.7757L14.7944 25.6918L15.478 25.0098C15.5725 24.9189 15.6147 24.828 15.6045 24.737C15.5978 24.6426 15.5354 24.5954 15.4172 24.5954C15.4105 24.5954 15.4071 24.5849 15.4071 24.5639C15.4071 24.5429 15.4105 24.5325 15.4172 24.5325C15.505 24.5325 15.5927 24.5342 15.6805 24.5377C15.7716 24.5412 15.8932 24.543 16.0451 24.543C16.1835 24.543 16.2932 24.5412 16.3742 24.5377C16.4586 24.5342 16.5379 24.5325 16.6121 24.5325C16.6223 24.5325 16.6273 24.5429 16.6273 24.5639C16.6273 24.5849 16.6223 24.5954 16.6121 24.5954C16.5278 24.5954 16.4265 24.6111 16.3083 24.6426C16.1936 24.6706 16.0754 24.7178 15.9539 24.7843C15.8324 24.8472 15.7176 24.9311 15.6096 25.0361L14.8248 25.7757Z" fill="black"/>
<path d="M17.7546 26.6256C17.5419 26.6256 17.358 26.5749 17.2027 26.4734C17.0474 26.372 16.9276 26.2374 16.8432 26.0695C16.7588 25.8981 16.7166 25.7145 16.7166 25.5187C16.7166 25.3368 16.7504 25.1795 16.8179 25.0466C16.8854 24.9137 16.9748 24.8052 17.0862 24.7213C17.1976 24.6339 17.3191 24.5692 17.4508 24.5272C17.5824 24.4852 17.7124 24.4643 17.8407 24.4643C18.0567 24.4643 18.2407 24.5167 18.3926 24.6216C18.5478 24.7266 18.666 24.8612 18.747 25.0256C18.828 25.1899 18.8685 25.3648 18.8685 25.5502C18.8685 25.7635 18.8162 25.9523 18.7116 26.1167C18.6103 26.2776 18.4753 26.4035 18.3065 26.4944C18.1377 26.5819 17.9537 26.6256 17.7546 26.6256ZM17.9065 26.5154C18.0415 26.5154 18.1428 26.4472 18.2103 26.3108C18.2778 26.1744 18.3116 25.9821 18.3116 25.7338C18.3116 25.4785 18.2795 25.2651 18.2153 25.0938C18.1546 24.9224 18.0753 24.793 17.9774 24.7056C17.8795 24.6181 17.7765 24.5744 17.6685 24.5744C17.5369 24.5744 17.4356 24.6356 17.3647 24.758C17.2972 24.8804 17.2635 25.0693 17.2635 25.3246C17.2635 25.5624 17.2921 25.7722 17.3495 25.9541C17.4069 26.1325 17.4845 26.2706 17.5824 26.3685C17.6803 26.4664 17.7883 26.5154 17.9065 26.5154Z" fill="black"/>
<path d="M19.1382 26.5574C19.1314 26.5574 19.128 26.5469 19.128 26.5259C19.128 26.5049 19.1314 26.4944 19.1382 26.4944C19.2428 26.4944 19.3137 26.4699 19.3508 26.421C19.3913 26.3685 19.4116 26.2724 19.4116 26.1325V23.4675C19.4116 23.3486 19.4015 23.263 19.3812 23.2105C19.361 23.1545 19.3221 23.1266 19.2648 23.1266C19.2175 23.1266 19.1534 23.1458 19.0723 23.1843C19.0622 23.1878 19.0521 23.179 19.042 23.158C19.0318 23.1371 19.0302 23.1248 19.0369 23.1213L19.7761 22.7593C19.7829 22.7558 19.788 22.7541 19.7913 22.7541C19.7947 22.7541 19.7981 22.7541 19.8015 22.7541C19.8183 22.7541 19.8352 22.7628 19.8521 22.7803C19.8723 22.7943 19.8825 22.8083 19.8825 22.8223V26.1325C19.8825 26.2724 19.901 26.3685 19.9382 26.421C19.9787 26.4699 20.0513 26.4944 20.1559 26.4944C20.1694 26.4944 20.1761 26.5049 20.1761 26.5259C20.1761 26.5469 20.1694 26.5574 20.1559 26.5574C20.0884 26.5574 20.0107 26.5556 19.923 26.5521C19.8386 26.5486 19.7475 26.5469 19.6496 26.5469C19.5517 26.5469 19.4588 26.5486 19.3711 26.5521C19.2833 26.5556 19.2057 26.5574 19.1382 26.5574ZM20.5002 26.5574C20.4934 26.5574 20.4901 26.5469 20.4901 26.5259C20.4901 26.5049 20.4934 26.4944 20.5002 26.4944C20.6048 26.4944 20.6757 26.4699 20.7129 26.421C20.7534 26.3685 20.7736 26.2724 20.7736 26.1325V25.377C20.7736 25.0063 20.6352 24.821 20.3584 24.821C20.2572 24.821 20.1525 24.8472 20.0445 24.8997C19.9399 24.9521 19.8572 25.0238 19.7964 25.1148L19.766 25.0518C19.8842 24.8769 20.0175 24.737 20.166 24.6321C20.3145 24.5237 20.4766 24.4695 20.6521 24.4695C20.8411 24.4695 20.9863 24.5307 21.0875 24.6531C21.1922 24.7755 21.2445 24.9329 21.2445 25.1252V26.1325C21.2445 26.2724 21.2631 26.3685 21.3002 26.421C21.3407 26.4699 21.4133 26.4944 21.5179 26.4944C21.5314 26.4944 21.5382 26.5049 21.5382 26.5259C21.5382 26.5469 21.5314 26.5574 21.5179 26.5574C21.4504 26.5574 21.3728 26.5556 21.285 26.5521C21.2006 26.5486 21.1095 26.5469 21.0116 26.5469C20.9137 26.5469 20.8209 26.5486 20.7331 26.5521C20.6453 26.5556 20.5677 26.5574 20.5002 26.5574Z" fill="black"/>
<path d="M22.808 26.6256C22.5953 26.6256 22.4114 26.5749 22.2561 26.4734C22.1008 26.372 21.981 26.2374 21.8966 26.0695C21.8122 25.8981 21.77 25.7145 21.77 25.5187C21.77 25.3368 21.8038 25.1795 21.8713 25.0466C21.9388 24.9137 22.0282 24.8052 22.1396 24.7213C22.251 24.6339 22.3725 24.5692 22.5042 24.5272C22.6358 24.4852 22.7658 24.4643 22.8941 24.4643C23.1101 24.4643 23.2941 24.5167 23.446 24.6216C23.6012 24.7266 23.7194 24.8612 23.8004 25.0256C23.8814 25.1899 23.9219 25.3648 23.9219 25.5502C23.9219 25.7635 23.8696 25.9523 23.765 26.1167C23.6637 26.2776 23.5287 26.4035 23.3599 26.4944C23.1911 26.5819 23.0071 26.6256 22.808 26.6256ZM22.9599 26.5154C23.0949 26.5154 23.1962 26.4472 23.2637 26.3108C23.3312 26.1744 23.365 25.9821 23.365 25.7338C23.365 25.4785 23.3329 25.2651 23.2687 25.0938C23.208 24.9224 23.1287 24.793 23.0308 24.7056C22.9329 24.6181 22.8299 24.5744 22.7219 24.5744C22.5903 24.5744 22.489 24.6356 22.4181 24.758C22.3506 24.8804 22.3169 25.0693 22.3169 25.3246C22.3169 25.5624 22.3455 25.7722 22.4029 25.9541C22.4603 26.1325 22.5379 26.2706 22.6358 26.3685C22.7337 26.4664 22.8417 26.5154 22.9599 26.5154Z" fill="black"/>
<path d="M24.2625 26.5574C24.2557 26.5574 24.2523 26.5469 24.2523 26.5259C24.2523 26.5049 24.2557 26.4944 24.2625 26.4944C24.3671 26.4944 24.438 26.4699 24.4751 26.421C24.5156 26.3685 24.5359 26.2724 24.5359 26.1325L24.5409 23.4675C24.5409 23.3486 24.5308 23.263 24.5106 23.2105C24.4903 23.1545 24.4515 23.1266 24.3941 23.1266C24.3502 23.1266 24.2861 23.1458 24.2017 23.1843C24.1916 23.1878 24.1814 23.179 24.1713 23.158C24.1612 23.1371 24.1595 23.1248 24.1663 23.1213L24.9106 22.7593C24.9173 22.7558 24.9241 22.7541 24.9308 22.7541C24.9477 22.7541 24.9663 22.7628 24.9865 22.7803C25.0068 22.7943 25.0169 22.8083 25.0169 22.8223V26.1325C25.0169 26.2724 25.0355 26.3685 25.0726 26.421C25.1097 26.4699 25.1806 26.4944 25.2852 26.4944C25.2987 26.4944 25.3055 26.5049 25.3055 26.5259C25.3055 26.5469 25.2987 26.5574 25.2852 26.5574C25.2211 26.5574 25.1435 26.5556 25.0523 26.5521C24.9646 26.5486 24.8717 26.5469 24.7739 26.5469C24.676 26.5469 24.5831 26.5486 24.4954 26.5521C24.4076 26.5556 24.33 26.5574 24.2625 26.5574Z" fill="black"/>
<path d="M25.5768 26.5574C25.5633 26.5574 25.5565 26.5469 25.5565 26.5259C25.5565 26.5049 25.5633 26.4944 25.5768 26.4944C25.705 26.4944 25.7878 26.4717 25.8249 26.4262C25.862 26.3808 25.8806 26.2828 25.8806 26.1325V24.9521C25.8806 24.8752 25.8704 24.8192 25.8502 24.7843C25.8299 24.7458 25.7962 24.7213 25.7489 24.7108C25.7017 24.6968 25.6375 24.6898 25.5565 24.6898C25.5464 24.6898 25.5413 24.6741 25.5413 24.6426C25.5413 24.6111 25.5464 24.5954 25.5565 24.5954C25.6747 24.5954 25.7557 24.5797 25.7996 24.5482C25.8434 24.5132 25.8671 24.452 25.8705 24.3646C25.8873 23.784 25.9937 23.3696 26.1894 23.1213C26.3852 22.873 26.6738 22.7489 27.0553 22.7489C27.2443 22.7489 27.3911 22.7751 27.4958 22.8275C27.6004 22.88 27.6527 22.9569 27.6527 23.0584C27.6527 23.1423 27.6257 23.207 27.5717 23.2525C27.5177 23.2944 27.4586 23.3154 27.3945 23.3154C27.3034 23.3154 27.2392 23.2927 27.2021 23.2472C27.1683 23.1983 27.1396 23.1458 27.116 23.0898C27.0924 23.0339 27.0637 22.9832 27.0299 22.9377C26.9996 22.8922 26.9422 22.8695 26.8578 22.8695C26.7126 22.8695 26.5928 22.9762 26.4983 23.1895C26.4038 23.4028 26.3565 23.7578 26.3565 24.2544V26.1325C26.3565 26.2339 26.3667 26.3108 26.3869 26.3633C26.4072 26.4157 26.4494 26.4507 26.5135 26.4682C26.5776 26.4857 26.6755 26.4944 26.8072 26.4944C26.8207 26.4944 26.8274 26.5049 26.8274 26.5259C26.8274 26.5469 26.8207 26.5574 26.8072 26.5574C26.689 26.5574 26.5726 26.5556 26.4578 26.5521C26.3464 26.5486 26.2316 26.5469 26.1135 26.5469C26.0156 26.5469 25.9194 26.5486 25.8249 26.5521C25.7337 26.5556 25.651 26.5574 25.5768 26.5574ZM26.8983 24.8C26.7667 24.7685 26.6401 24.7475 26.5186 24.737C26.4004 24.7231 26.2738 24.7161 26.1388 24.7161V24.5797C26.2671 24.5797 26.3937 24.5744 26.5186 24.5639C26.6434 24.5534 26.7751 24.5412 26.9135 24.5272C26.9236 24.5272 26.9321 24.5412 26.9388 24.5692C26.9456 24.5937 26.9489 24.6216 26.9489 24.6531C26.9489 24.6881 26.9422 24.7231 26.9287 24.758C26.9186 24.7895 26.9084 24.8035 26.8983 24.8Z" fill="black"/>
<path d="M27.798 25.1357L27.7575 25.0675C27.8891 24.9102 28.0005 24.7895 28.0917 24.7056C28.1828 24.6216 28.2604 24.5639 28.3246 24.5325C28.3887 24.4975 28.4461 24.48 28.4967 24.48C28.5676 24.48 28.6402 24.508 28.7144 24.5639C28.7921 24.6164 28.8309 24.6863 28.8309 24.7738C28.8309 24.8472 28.809 24.9084 28.7651 24.9574C28.7246 25.0028 28.6672 25.0256 28.5929 25.0256C28.522 25.0256 28.468 25.0063 28.4309 24.9679C28.3971 24.9294 28.3651 24.8927 28.3347 24.8577C28.3077 24.8192 28.2672 24.8 28.2132 24.8C28.1895 24.8 28.1625 24.8087 28.1322 24.8262C28.1052 24.8402 28.0646 24.8717 28.0106 24.9207C27.96 24.9661 27.8891 25.0378 27.798 25.1357ZM27.1803 26.5574C27.1701 26.5574 27.1651 26.5469 27.1651 26.5259C27.1651 26.5049 27.1701 26.4944 27.1803 26.4944C27.2849 26.4944 27.3558 26.4699 27.3929 26.421C27.43 26.3685 27.4486 26.2724 27.4486 26.1325V25.1462C27.4486 25.0378 27.4368 24.9591 27.4132 24.9102C27.3895 24.8577 27.349 24.8315 27.2917 24.8315C27.2613 24.8315 27.2258 24.8385 27.1853 24.8525C27.1448 24.863 27.0992 24.8804 27.0486 24.9049C27.0351 24.9119 27.025 24.9049 27.0182 24.8839C27.0115 24.8629 27.0115 24.8507 27.0182 24.8472L27.722 24.4905C27.7423 24.4835 27.7541 24.48 27.7575 24.48C27.7946 24.48 27.8317 24.522 27.8689 24.6059C27.906 24.6898 27.9246 24.8105 27.9246 24.9679V26.1325C27.9246 26.2234 27.9381 26.2968 27.9651 26.3528C27.9921 26.4052 28.0376 26.442 28.1018 26.4629C28.1693 26.4839 28.2604 26.4944 28.3752 26.4944C28.3887 26.4944 28.3954 26.5049 28.3954 26.5259C28.3954 26.5469 28.3887 26.5574 28.3752 26.5574C28.2841 26.5574 28.1794 26.5556 28.0613 26.5521C27.9465 26.5486 27.8216 26.5469 27.6866 26.5469C27.5921 26.5469 27.5009 26.5486 27.4132 26.5521C27.3254 26.5556 27.2478 26.5574 27.1803 26.5574Z" fill="black"/>
<path d="M29.0988 26.5574C29.0886 26.5574 29.0836 26.5469 29.0836 26.5259C29.0836 26.5049 29.0886 26.4944 29.0988 26.4944C29.2034 26.4944 29.2743 26.4699 29.3114 26.421C29.3486 26.3685 29.3671 26.2724 29.3671 26.1325V25.1934C29.3671 25.078 29.3553 24.9941 29.3317 24.9416C29.3114 24.8857 29.2726 24.8577 29.2152 24.8577C29.1916 24.8577 29.1629 24.8629 29.1292 24.8734C29.0988 24.8839 29.065 24.8979 29.0279 24.9154C29.0144 24.9189 29.0026 24.9102 28.9924 24.8892C28.9857 24.8682 28.9874 24.856 28.9975 24.8525L29.7621 24.4852C29.7688 24.4817 29.7739 24.48 29.7773 24.48C29.7941 24.48 29.811 24.4887 29.8279 24.5062C29.8448 24.5237 29.8532 24.5395 29.8532 24.5534C29.8532 24.5954 29.8515 24.6654 29.8481 24.7633C29.8448 24.8612 29.8431 25.0011 29.8431 25.183V26.1325C29.8431 26.2724 29.8616 26.3685 29.8988 26.421C29.9393 26.4699 30.0119 26.4944 30.1165 26.4944C30.1266 26.4944 30.1317 26.5049 30.1317 26.5259C30.1317 26.5469 30.1266 26.5574 30.1165 26.5574C30.049 26.5574 29.9713 26.5556 29.8836 26.5521C29.7958 26.5486 29.703 26.5469 29.6051 26.5469C29.5106 26.5469 29.4194 26.5486 29.3317 26.5521C29.2439 26.5556 29.1663 26.5574 29.0988 26.5574ZM29.5849 23.9607C29.4903 23.9607 29.4144 23.9327 29.357 23.8767C29.303 23.8208 29.276 23.7421 29.276 23.6407C29.276 23.5497 29.303 23.478 29.357 23.4256C29.4144 23.3696 29.4903 23.3416 29.5849 23.3416C29.6794 23.3416 29.7519 23.3696 29.8026 23.4256C29.8532 23.478 29.8785 23.5497 29.8785 23.6407C29.8785 23.854 29.7806 23.9607 29.5849 23.9607Z" fill="black"/>
<path d="M32.3903 26.6203C32.2046 26.6203 32.0578 26.5591 31.9498 26.4367C31.8451 26.3143 31.7928 26.1569 31.7928 25.9646V25.1934C31.7928 25.078 31.7793 24.9923 31.7523 24.9364C31.7287 24.8804 31.6898 24.8525 31.6358 24.8525C31.5987 24.8525 31.5565 24.8647 31.5093 24.8892C31.4958 24.8927 31.4839 24.8839 31.4738 24.863C31.4671 24.842 31.4688 24.8297 31.4789 24.8262L32.1574 24.4905C32.1675 24.487 32.1759 24.4852 32.1827 24.4852C32.1996 24.4852 32.2164 24.494 32.2333 24.5115C32.2536 24.5255 32.2637 24.5395 32.2637 24.5534V25.7128C32.2637 25.9016 32.2974 26.0433 32.365 26.1377C32.4358 26.2321 32.5422 26.2793 32.6839 26.2793C32.7818 26.2793 32.8797 26.2514 32.9776 26.1954C33.0755 26.136 33.1531 26.0625 33.2105 25.9751L33.2409 26.038C33.1261 26.2094 32.9979 26.3493 32.8561 26.4577C32.7143 26.5661 32.559 26.6203 32.3903 26.6203ZM33.5852 24.5534V25.9489C33.5852 26.0678 33.5953 26.1517 33.6156 26.2007C33.6392 26.2496 33.6763 26.2741 33.727 26.2741C33.7506 26.2741 33.7793 26.2689 33.8131 26.2584C33.8502 26.2479 33.8907 26.2339 33.9346 26.2164C33.9481 26.2094 33.9599 26.2164 33.97 26.2374C33.9801 26.2549 33.9801 26.2671 33.97 26.2741L33.2713 26.6256C33.2645 26.6291 33.2561 26.6308 33.246 26.6308C33.2122 26.6308 33.1818 26.5871 33.1548 26.4997C33.1278 26.4122 33.1143 26.2881 33.1143 26.1272V25.1934C33.1143 25.078 33.1008 24.9923 33.0738 24.9364C33.0502 24.8804 33.0114 24.8525 32.9574 24.8525C32.9202 24.8525 32.8763 24.8647 32.8257 24.8892C32.8156 24.8927 32.8055 24.8839 32.7953 24.863C32.7886 24.842 32.7903 24.8297 32.8004 24.8262L33.4789 24.4905C33.4856 24.487 33.4941 24.4852 33.5042 24.4852C33.5211 24.4852 33.5379 24.494 33.5548 24.5115C33.5751 24.5255 33.5852 24.5395 33.5852 24.5534Z" fill="black"/>
<path d="M34.9314 26.6256C34.7863 26.6256 34.653 26.5854 34.5314 26.5049C34.4133 26.4245 34.3171 26.3091 34.2428 26.1587C34.172 26.0048 34.1365 25.8195 34.1365 25.6026C34.1365 25.3893 34.1736 25.2109 34.2479 25.0675C34.3222 24.9207 34.4167 24.8035 34.5314 24.7161C34.6496 24.6286 34.7762 24.5657 34.9112 24.5272C35.0462 24.4852 35.1745 24.4643 35.296 24.4643C35.4175 24.4643 35.5306 24.48 35.6352 24.5115C35.7399 24.543 35.8344 24.5814 35.9188 24.6269L35.8023 25.0518C35.7314 24.8944 35.6504 24.7808 35.5593 24.7108C35.4682 24.6374 35.3551 24.6007 35.2201 24.6007C35.0479 24.6007 34.9112 24.6636 34.8099 24.7895C34.7087 24.9119 34.658 25.127 34.658 25.4348C34.658 25.6341 34.6817 25.8037 34.7289 25.9436C34.7762 26.0835 34.842 26.1902 34.9264 26.2636C35.0108 26.337 35.1053 26.3738 35.2099 26.3738C35.3449 26.3738 35.4631 26.3353 35.5644 26.2584C35.6656 26.1814 35.7635 26.0887 35.858 25.9803L35.9087 26.0275C35.8378 26.1115 35.7534 26.2007 35.6555 26.2951C35.561 26.386 35.453 26.4647 35.3314 26.5311C35.2133 26.5941 35.08 26.6256 34.9314 26.6256ZM36.1669 22.8223V25.9489C36.1669 26.0678 36.177 26.1517 36.1973 26.2007C36.2209 26.2496 36.258 26.2741 36.3087 26.2741C36.3323 26.2741 36.361 26.2689 36.3947 26.2584C36.4319 26.2479 36.4724 26.2339 36.5163 26.2164C36.5264 26.2094 36.5365 26.2164 36.5466 26.2374C36.5568 26.2549 36.5585 26.2671 36.5517 26.2741L35.853 26.6256C35.8428 26.6291 35.8344 26.6308 35.8277 26.6308C35.7939 26.6308 35.7618 26.5871 35.7314 26.4997C35.7044 26.4122 35.6909 26.2881 35.6909 26.1272V23.4675C35.6909 23.3486 35.6808 23.263 35.6606 23.2105C35.6403 23.1545 35.6015 23.1266 35.5441 23.1266C35.5205 23.1266 35.4918 23.1318 35.458 23.1423C35.4277 23.1528 35.3939 23.1668 35.3568 23.1843C35.3433 23.1878 35.3314 23.179 35.3213 23.158C35.3112 23.1371 35.3095 23.1248 35.3163 23.1213L36.0606 22.7593C36.0673 22.7558 36.0741 22.7541 36.0808 22.7541C36.0977 22.7541 36.1163 22.7628 36.1365 22.7803C36.1568 22.7943 36.1669 22.8083 36.1669 22.8223Z" fill="black"/>
<path d="M37.7455 26.6203C37.526 26.6203 37.3387 26.5731 37.1834 26.4787C37.0315 26.3843 36.9151 26.2601 36.8341 26.1062C36.7564 25.9489 36.7176 25.7827 36.7176 25.6079C36.7176 25.4015 36.7682 25.2144 36.8695 25.0466C36.9708 24.8752 37.1075 24.7388 37.2796 24.6374C37.4552 24.536 37.6526 24.4852 37.872 24.4852C38.0813 24.4852 38.2417 24.5325 38.353 24.6269C38.4644 24.7178 38.5201 24.8437 38.5201 25.0046C38.5201 25.0431 38.5168 25.078 38.51 25.1095C38.5033 25.141 38.4881 25.1567 38.4644 25.1567H37.9784C37.9851 24.9923 37.9665 24.8577 37.9227 24.7528C37.8788 24.6444 37.7995 24.5902 37.6847 24.5902C37.5497 24.5902 37.44 24.6636 37.3556 24.8105C37.2712 24.9539 37.229 25.1462 37.229 25.3875C37.229 25.5834 37.2594 25.7548 37.3201 25.9016C37.3809 26.0485 37.4687 26.1622 37.5834 26.2426C37.6982 26.3231 37.8366 26.3633 37.9986 26.3633C38.0796 26.3633 38.1657 26.351 38.2568 26.3266C38.3514 26.3021 38.4357 26.2654 38.51 26.2164C38.5168 26.2094 38.5252 26.2129 38.5353 26.2269C38.5488 26.2409 38.5522 26.2531 38.5455 26.2636C38.4206 26.393 38.2923 26.4857 38.1606 26.5416C38.0324 26.5941 37.894 26.6203 37.7455 26.6203ZM37.0518 25.1672L37.0467 25.0675L38.1556 25.0413V25.1567L37.0518 25.1672Z" fill="black"/>
<path d="M40.2314 26.5574C40.2212 26.5574 40.2162 26.5469 40.2162 26.5259C40.2162 26.5049 40.2212 26.4944 40.2314 26.4944C40.336 26.4944 40.4069 26.4699 40.444 26.421C40.4812 26.3685 40.4997 26.2724 40.4997 26.1325V25.377C40.4997 25.1882 40.466 25.0483 40.3985 24.9574C40.3343 24.8664 40.2314 24.821 40.0896 24.821C39.9883 24.821 39.8837 24.8472 39.7757 24.8997C39.671 24.9521 39.5866 25.0238 39.5225 25.1148L39.4972 25.0518C39.6153 24.8769 39.7487 24.737 39.8972 24.6321C40.0457 24.5237 40.2077 24.4695 40.3833 24.4695C40.5723 24.4695 40.7174 24.5307 40.8187 24.6531C40.9234 24.7755 40.9757 24.9329 40.9757 25.1252V26.1325C40.9757 26.2724 40.9942 26.3685 41.0314 26.421C41.0719 26.4699 41.1444 26.4944 41.2491 26.4944C41.2592 26.4944 41.2643 26.5049 41.2643 26.5259C41.2643 26.5469 41.2592 26.5574 41.2491 26.5574C41.1816 26.5574 41.1039 26.5556 41.0162 26.5521C40.9284 26.5486 40.8356 26.5469 40.7377 26.5469C40.6432 26.5469 40.552 26.5486 40.4643 26.5521C40.3765 26.5556 40.2989 26.5574 40.2314 26.5574ZM38.8693 26.5574C38.8592 26.5574 38.8542 26.5469 38.8542 26.5259C38.8542 26.5049 38.8592 26.4944 38.8693 26.4944C38.974 26.4944 39.0449 26.4699 39.082 26.421C39.1191 26.3685 39.1377 26.2724 39.1377 26.1325V25.1462C39.1377 25.0378 39.1259 24.9591 39.1023 24.9102C39.0786 24.8577 39.0381 24.8315 38.9807 24.8315C38.9504 24.8315 38.9149 24.8385 38.8744 24.8525C38.8339 24.863 38.7883 24.8804 38.7377 24.9049C38.7242 24.9119 38.7141 24.9049 38.7073 24.8839C38.7006 24.8629 38.7006 24.8507 38.7073 24.8472L39.4111 24.4905C39.4314 24.4835 39.4432 24.48 39.4466 24.48C39.4837 24.48 39.5208 24.522 39.558 24.6059C39.5951 24.6898 39.6136 24.8105 39.6136 24.9679V26.1325C39.6136 26.2724 39.6322 26.3685 39.6693 26.421C39.7099 26.4699 39.7824 26.4944 39.8871 26.4944C39.8972 26.4944 39.9023 26.5049 39.9023 26.5259C39.9023 26.5469 39.8972 26.5574 39.8871 26.5574C39.8196 26.5574 39.7419 26.5556 39.6542 26.5521C39.5664 26.5486 39.4736 26.5469 39.3757 26.5469C39.2812 26.5469 39.19 26.5486 39.1023 26.5521C39.0145 26.5556 38.9369 26.5574 38.8693 26.5574Z" fill="black"/>
<path d="M42.6301 26.5574C42.6233 26.5574 42.6199 26.5469 42.6199 26.5259C42.6199 26.5049 42.6233 26.4944 42.6301 26.4944C42.7347 26.4944 42.8056 26.4699 42.8427 26.421C42.8832 26.3685 42.9035 26.2724 42.9035 26.1325V23.4675C42.9035 23.3486 42.8934 23.263 42.8731 23.2105C42.8528 23.1545 42.814 23.1266 42.7566 23.1266C42.7094 23.1266 42.6453 23.1458 42.5642 23.1843C42.5541 23.1878 42.544 23.179 42.5339 23.158C42.5237 23.1371 42.522 23.1248 42.5288 23.1213L43.268 22.7593C43.2782 22.7558 43.2866 22.7541 43.2934 22.7541C43.3102 22.7541 43.3271 22.7628 43.344 22.7803C43.3642 22.7943 43.3744 22.8083 43.3744 22.8223V26.1325C43.3744 26.2724 43.3929 26.3685 43.4301 26.421C43.4706 26.4699 43.5431 26.4944 43.6478 26.4944C43.6613 26.4944 43.668 26.5049 43.668 26.5259C43.668 26.5469 43.6613 26.5574 43.6478 26.5574C43.5803 26.5574 43.5026 26.5556 43.4149 26.5521C43.3305 26.5486 43.2393 26.5469 43.1415 26.5469C43.0436 26.5469 42.9507 26.5486 42.863 26.5521C42.7752 26.5556 42.6976 26.5574 42.6301 26.5574ZM43.906 26.5574C43.8959 26.5574 43.8908 26.5469 43.8908 26.5259C43.8908 26.5049 43.8959 26.4944 43.906 26.4944C43.9972 26.4944 44.0545 26.4734 44.0782 26.4315C44.1018 26.3895 44.0917 26.3388 44.0478 26.2793L43.4351 25.4662L43.7794 25.1934L44.4883 26.1325C44.5862 26.2619 44.679 26.3545 44.7668 26.4105C44.8579 26.4664 44.949 26.4944 45.0402 26.4944C45.0503 26.4944 45.0554 26.5049 45.0554 26.5259C45.0554 26.5469 45.0503 26.5574 45.0402 26.5574C44.9727 26.5574 44.895 26.5556 44.8073 26.5521C44.7195 26.5486 44.6267 26.5469 44.5288 26.5469C44.3938 26.5469 44.2756 26.5486 44.1744 26.5521C44.0765 26.5556 43.987 26.5574 43.906 26.5574ZM43.1921 25.7757L43.1617 25.6918L43.8452 25.0098C43.9398 24.9189 43.982 24.828 43.9718 24.737C43.9651 24.6426 43.9026 24.5954 43.7845 24.5954C43.7777 24.5954 43.7744 24.5849 43.7744 24.5639C43.7744 24.5429 43.7777 24.5325 43.7845 24.5325C43.8723 24.5325 43.96 24.5342 44.0478 24.5377C44.1389 24.5412 44.2604 24.543 44.4123 24.543C44.5507 24.543 44.6604 24.5412 44.7415 24.5377C44.8258 24.5342 44.9052 24.5325 44.9794 24.5325C44.9896 24.5325 44.9946 24.5429 44.9946 24.5639C44.9946 24.5849 44.9896 24.5954 44.9794 24.5954C44.895 24.5954 44.7938 24.6111 44.6756 24.6426C44.5609 24.6706 44.4427 24.7178 44.3212 24.7843C44.1997 24.8472 44.0849 24.9311 43.9769 25.0361L43.1921 25.7757Z" fill="black"/>
<path d="M46.1219 26.6256C45.9092 26.6256 45.7253 26.5749 45.57 26.4734C45.4147 26.372 45.2949 26.2374 45.2105 26.0695C45.1261 25.8981 45.0839 25.7145 45.0839 25.5187C45.0839 25.3368 45.1177 25.1795 45.1852 25.0466C45.2527 24.9137 45.3421 24.8052 45.4535 24.7213C45.5649 24.6339 45.6864 24.5692 45.8181 24.5272C45.9497 24.4852 46.0797 24.4643 46.208 24.4643C46.424 24.4643 46.6079 24.5167 46.7598 24.6216C46.9151 24.7266 47.0333 24.8612 47.1143 25.0256C47.1953 25.1899 47.2358 25.3648 47.2358 25.5502C47.2358 25.7635 47.1835 25.9523 47.0788 26.1167C46.9776 26.2776 46.8425 26.4035 46.6738 26.4944C46.505 26.5819 46.321 26.6256 46.1219 26.6256ZM46.2738 26.5154C46.4088 26.5154 46.5101 26.4472 46.5776 26.3108C46.6451 26.1744 46.6788 25.9821 46.6788 25.7338C46.6788 25.4785 46.6468 25.2651 46.5826 25.0938C46.5219 24.9224 46.4426 24.793 46.3447 24.7056C46.2468 24.6181 46.1438 24.5744 46.0358 24.5744C45.9042 24.5744 45.8029 24.6356 45.732 24.758C45.6645 24.8804 45.6307 25.0693 45.6307 25.3246C45.6307 25.5624 45.6594 25.7722 45.7168 25.9541C45.7742 26.1325 45.8518 26.2706 45.9497 26.3685C46.0476 26.4664 46.1556 26.5154 46.2738 26.5154Z" fill="black"/>
<path d="M50.2244 26.5574C50.2143 26.5574 50.2093 26.5469 50.2093 26.5259C50.2093 26.5049 50.2143 26.4944 50.2244 26.4944C50.3291 26.4944 50.4 26.4699 50.4371 26.421C50.4776 26.3685 50.4979 26.2724 50.4979 26.1325V25.377C50.4979 25.0063 50.3713 24.821 50.1181 24.821C50.0135 24.821 49.9122 24.8472 49.8143 24.8997C49.7164 24.9521 49.6371 25.0238 49.5763 25.1148L49.551 25.0518C49.6658 24.8769 49.7941 24.737 49.9358 24.6321C50.081 24.5237 50.2379 24.4695 50.4067 24.4695C50.5856 24.4695 50.724 24.5237 50.8219 24.6321C50.9198 24.737 50.9688 24.9014 50.9688 25.1252V26.1325C50.9688 26.2724 50.9873 26.3685 51.0244 26.421C51.0649 26.4699 51.1375 26.4944 51.2422 26.4944C51.2557 26.4944 51.2624 26.5049 51.2624 26.5259C51.2624 26.5469 51.2557 26.5574 51.2422 26.5574C51.1747 26.5574 51.097 26.5556 51.0093 26.5521C50.9215 26.5486 50.8287 26.5469 50.7308 26.5469C50.6363 26.5469 50.5451 26.5486 50.4574 26.5521C50.3696 26.5556 50.292 26.5574 50.2244 26.5574ZM48.8979 26.5574C48.8877 26.5574 48.8827 26.5469 48.8827 26.5259C48.8827 26.5049 48.8877 26.4944 48.8979 26.4944C49.0025 26.4944 49.0734 26.4699 49.1105 26.421C49.151 26.3685 49.1713 26.2724 49.1713 26.1325V25.377C49.1713 25.0063 49.0447 24.821 48.7915 24.821C48.6869 24.821 48.5856 24.8472 48.4877 24.8997C48.3898 24.9521 48.3105 25.0238 48.2498 25.1148L48.2244 25.0518C48.3392 24.8769 48.4675 24.737 48.6093 24.6321C48.7544 24.5237 48.9114 24.4695 49.0801 24.4695C49.259 24.4695 49.3974 24.5202 49.4953 24.6216C49.5932 24.7231 49.6422 24.8717 49.6422 25.0675V26.1325C49.6422 26.2724 49.6607 26.3685 49.6979 26.421C49.7384 26.4699 49.8109 26.4944 49.9156 26.4944C49.9291 26.4944 49.9358 26.5049 49.9358 26.5259C49.9358 26.5469 49.9291 26.5574 49.9156 26.5574C49.8481 26.5574 49.7704 26.5556 49.6827 26.5521C49.5949 26.5486 49.5021 26.5469 49.4042 26.5469C49.3097 26.5469 49.2185 26.5486 49.1308 26.5521C49.043 26.5556 48.9654 26.5574 48.8979 26.5574ZM47.5966 26.5574C47.5865 26.5574 47.5814 26.5469 47.5814 26.5259C47.5814 26.5049 47.5865 26.4944 47.5966 26.4944C47.7012 26.4944 47.7721 26.4699 47.8093 26.421C47.8464 26.3685 47.865 26.2724 47.865 26.1325V25.1462C47.865 25.0378 47.8531 24.9591 47.8295 24.9102C47.8059 24.8577 47.7654 24.8315 47.708 24.8315C47.6776 24.8315 47.6422 24.8385 47.6017 24.8525C47.5612 24.863 47.5156 24.8804 47.465 24.9049C47.4514 24.9119 47.4413 24.9049 47.4346 24.8839C47.4278 24.8629 47.4278 24.8507 47.4346 24.8472L48.1384 24.4905C48.1586 24.4835 48.1704 24.48 48.1738 24.48C48.2109 24.48 48.2481 24.522 48.2852 24.6059C48.3223 24.6898 48.3409 24.8105 48.3409 24.9679V26.1325C48.3409 26.2724 48.3595 26.3685 48.3966 26.421C48.4371 26.4699 48.5097 26.4944 48.6143 26.4944C48.6244 26.4944 48.6295 26.5049 48.6295 26.5259C48.6295 26.5469 48.6244 26.5574 48.6143 26.5574C48.5468 26.5574 48.4692 26.5556 48.3814 26.5521C48.2936 26.5486 48.2008 26.5469 48.1029 26.5469C48.0084 26.5469 47.9173 26.5486 47.8295 26.5521C47.7417 26.5556 47.6641 26.5574 47.5966 26.5574Z" fill="black"/>
<path d="M51.4667 28C51.4566 28 51.4515 27.9895 51.4515 27.9685C51.4515 27.9475 51.4566 27.937 51.4667 27.937C51.5848 27.937 51.6608 27.9143 51.6945 27.8689C51.7317 27.8234 51.7502 27.7255 51.7502 27.5751V25.1462C51.7502 25.0378 51.7384 24.9591 51.7148 24.9102C51.6912 24.8577 51.649 24.8315 51.5882 24.8315C51.5612 24.8315 51.5275 24.8385 51.4869 24.8525C51.4464 24.863 51.4026 24.8804 51.3553 24.9049C51.3418 24.9119 51.33 24.9049 51.3199 24.8839C51.3097 24.8629 51.308 24.8507 51.3148 24.8472L52.0338 24.4852C52.0405 24.4817 52.049 24.48 52.0591 24.48C52.0962 24.48 52.1317 24.522 52.1654 24.6059C52.2026 24.6898 52.2211 24.8105 52.2211 24.9679V27.5751C52.2211 27.673 52.2312 27.7482 52.2515 27.8007C52.2751 27.8531 52.319 27.8881 52.3831 27.9056C52.4473 27.9266 52.5435 27.937 52.6718 27.937C52.6819 27.937 52.6869 27.9475 52.6869 27.9685C52.6869 27.9895 52.6819 28 52.6718 28C52.5772 28 52.4709 27.9983 52.3528 27.9948C52.2346 27.9913 52.1097 27.9895 51.9781 27.9895C51.8836 27.9895 51.7907 27.9913 51.6996 27.9948C51.6118 27.9983 51.5342 28 51.4667 28ZM52.6566 26.6256C52.5249 26.6256 52.4118 26.6151 52.3173 26.5941C52.2262 26.5731 52.1165 26.5399 51.9882 26.4944L52.1654 26.1639C52.2397 26.2584 52.319 26.337 52.4034 26.4C52.4912 26.4629 52.6076 26.4944 52.7528 26.4944C52.9114 26.4944 53.0363 26.4227 53.1275 26.2793C53.2186 26.136 53.2642 25.9069 53.2642 25.5921C53.2642 25.3123 53.2017 25.1043 53.0768 24.9679C52.9519 24.828 52.8051 24.758 52.6363 24.758C52.5114 24.758 52.4034 24.7913 52.3123 24.8577C52.2211 24.9242 52.1317 25.0081 52.0439 25.1095L51.9933 25.0466C52.1654 24.8402 52.3291 24.6916 52.4844 24.6007C52.6431 24.5097 52.8051 24.4643 52.9705 24.4643C53.1123 24.4643 53.2439 24.5027 53.3654 24.5797C53.4869 24.6531 53.5848 24.7615 53.6591 24.9049C53.7367 25.0483 53.7756 25.2232 53.7756 25.4295C53.7756 25.6533 53.7401 25.8422 53.6692 25.9961C53.6017 26.1499 53.5123 26.2741 53.4009 26.3685C53.2895 26.4595 53.168 26.5242 53.0363 26.5626C52.908 26.6046 52.7815 26.6256 52.6566 26.6256Z" fill="black"/>
<path d="M54.7462 25.1357L54.7057 25.0675C54.8373 24.9102 54.9487 24.7895 55.0398 24.7056C55.131 24.6216 55.2086 24.5639 55.2727 24.5325C55.3369 24.4975 55.3943 24.48 55.4449 24.48C55.5158 24.48 55.5884 24.508 55.6626 24.5639C55.7403 24.6164 55.7791 24.6863 55.7791 24.7738C55.7791 24.8472 55.7571 24.9084 55.7133 24.9574C55.6727 25.0028 55.6154 25.0256 55.5411 25.0256C55.4702 25.0256 55.4162 25.0063 55.3791 24.9679C55.3453 24.9294 55.3133 24.8927 55.2829 24.8577C55.2559 24.8192 55.2154 24.8 55.1614 24.8C55.1377 24.8 55.1107 24.8087 55.0803 24.8262C55.0533 24.8402 55.0128 24.8717 54.9588 24.9207C54.9082 24.9661 54.8373 25.0378 54.7462 25.1357ZM54.1284 26.5574C54.1183 26.5574 54.1133 26.5469 54.1133 26.5259C54.1133 26.5049 54.1183 26.4944 54.1284 26.4944C54.2331 26.4944 54.304 26.4699 54.3411 26.421C54.3782 26.3685 54.3968 26.2724 54.3968 26.1325V25.1462C54.3968 25.0378 54.385 24.9591 54.3614 24.9102C54.3377 24.8577 54.2972 24.8315 54.2398 24.8315C54.2095 24.8315 54.174 24.8385 54.1335 24.8525C54.093 24.863 54.0474 24.8804 53.9968 24.9049C53.9833 24.9119 53.9732 24.9049 53.9664 24.8839C53.9597 24.8629 53.9597 24.8507 53.9664 24.8472L54.6702 24.4905C54.6905 24.4835 54.7023 24.48 54.7057 24.48C54.7428 24.48 54.7799 24.522 54.8171 24.6059C54.8542 24.6898 54.8727 24.8105 54.8727 24.9679V26.1325C54.8727 26.2234 54.8862 26.2968 54.9133 26.3528C54.9403 26.4052 54.9858 26.442 55.05 26.4629C55.1175 26.4839 55.2086 26.4944 55.3234 26.4944C55.3369 26.4944 55.3436 26.5049 55.3436 26.5259C55.3436 26.5469 55.3369 26.5574 55.3234 26.5574C55.2322 26.5574 55.1276 26.5556 55.0095 26.5521C54.8947 26.5486 54.7698 26.5469 54.6348 26.5469C54.5403 26.5469 54.4491 26.5486 54.3614 26.5521C54.2736 26.5556 54.1959 26.5574 54.1284 26.5574Z" fill="black"/>
<path d="M56.9902 26.6256C56.7775 26.6256 56.5935 26.5749 56.4383 26.4734C56.283 26.372 56.1631 26.2374 56.0788 26.0695C55.9944 25.8981 55.9522 25.7145 55.9522 25.5187C55.9522 25.3368 55.9859 25.1795 56.0534 25.0466C56.121 24.9137 56.2104 24.8052 56.3218 24.7213C56.4332 24.6339 56.5547 24.5692 56.6864 24.5272C56.818 24.4852 56.948 24.4643 57.0762 24.4643C57.2923 24.4643 57.4762 24.5167 57.6281 24.6216C57.7834 24.7266 57.9015 24.8612 57.9826 25.0256C58.0636 25.1899 58.1041 25.3648 58.1041 25.5502C58.1041 25.7635 58.0518 25.9523 57.9471 26.1167C57.8458 26.2776 57.7108 26.4035 57.542 26.4944C57.3733 26.5819 57.1893 26.6256 56.9902 26.6256ZM57.142 26.5154C57.2771 26.5154 57.3783 26.4472 57.4458 26.3108C57.5134 26.1744 57.5471 25.9821 57.5471 25.7338C57.5471 25.4785 57.515 25.2651 57.4509 25.0938C57.3901 24.9224 57.3108 24.793 57.2129 24.7056C57.115 24.6181 57.0121 24.5744 56.9041 24.5744C56.7724 24.5744 56.6712 24.6356 56.6003 24.758C56.5328 24.8804 56.499 25.0693 56.499 25.3246C56.499 25.5624 56.5277 25.7722 56.5851 25.9541C56.6425 26.1325 56.7201 26.2706 56.818 26.3685C56.9159 26.4664 57.0239 26.5154 57.142 26.5154Z" fill="black"/>
<path d="M61.0927 26.5574C61.0826 26.5574 61.0775 26.5469 61.0775 26.5259C61.0775 26.5049 61.0826 26.4944 61.0927 26.4944C61.1974 26.4944 61.2682 26.4699 61.3054 26.421C61.3459 26.3685 61.3661 26.2724 61.3661 26.1325V25.377C61.3661 25.0063 61.2396 24.821 60.9864 24.821C60.8817 24.821 60.7805 24.8472 60.6826 24.8997C60.5847 24.9521 60.5054 25.0238 60.4446 25.1148L60.4193 25.0518C60.5341 24.8769 60.6623 24.737 60.8041 24.6321C60.9493 24.5237 61.1062 24.4695 61.275 24.4695C61.4539 24.4695 61.5923 24.5237 61.6902 24.6321C61.7881 24.737 61.837 24.9014 61.837 25.1252V26.1325C61.837 26.2724 61.8556 26.3685 61.8927 26.421C61.9332 26.4699 62.0058 26.4944 62.1104 26.4944C62.1239 26.4944 62.1307 26.5049 62.1307 26.5259C62.1307 26.5469 62.1239 26.5574 62.1104 26.5574C62.0429 26.5574 61.9653 26.5556 61.8775 26.5521C61.7898 26.5486 61.6969 26.5469 61.599 26.5469C61.5045 26.5469 61.4134 26.5486 61.3256 26.5521C61.2379 26.5556 61.1602 26.5574 61.0927 26.5574ZM59.7661 26.5574C59.756 26.5574 59.7509 26.5469 59.7509 26.5259C59.7509 26.5049 59.756 26.4944 59.7661 26.4944C59.8708 26.4944 59.9417 26.4699 59.9788 26.421C60.0193 26.3685 60.0396 26.2724 60.0396 26.1325V25.377C60.0396 25.0063 59.913 24.821 59.6598 24.821C59.5552 24.821 59.4539 24.8472 59.356 24.8997C59.2581 24.9521 59.1788 25.0238 59.118 25.1148L59.0927 25.0518C59.2075 24.8769 59.3358 24.737 59.4775 24.6321C59.6227 24.5237 59.7796 24.4695 59.9484 24.4695C60.1273 24.4695 60.2657 24.5202 60.3636 24.6216C60.4615 24.7231 60.5104 24.8717 60.5104 25.0675V26.1325C60.5104 26.2724 60.529 26.3685 60.5661 26.421C60.6066 26.4699 60.6792 26.4944 60.7839 26.4944C60.7974 26.4944 60.8041 26.5049 60.8041 26.5259C60.8041 26.5469 60.7974 26.5574 60.7839 26.5574C60.7163 26.5574 60.6387 26.5556 60.5509 26.5521C60.4632 26.5486 60.3704 26.5469 60.2725 26.5469C60.178 26.5469 60.0868 26.5486 59.9991 26.5521C59.9113 26.5556 59.8336 26.5574 59.7661 26.5574ZM58.4649 26.5574C58.4547 26.5574 58.4497 26.5469 58.4497 26.5259C58.4497 26.5049 58.4547 26.4944 58.4649 26.4944C58.5695 26.4944 58.6404 26.4699 58.6775 26.421C58.7147 26.3685 58.7332 26.2724 58.7332 26.1325V25.1462C58.7332 25.0378 58.7214 24.9591 58.6978 24.9102C58.6742 24.8577 58.6336 24.8315 58.5763 24.8315C58.5459 24.8315 58.5104 24.8385 58.4699 24.8525C58.4294 24.863 58.3839 24.8804 58.3332 24.9049C58.3197 24.9119 58.3096 24.9049 58.3028 24.8839C58.2961 24.8629 58.2961 24.8507 58.3028 24.8472L59.0066 24.4905C59.0269 24.4835 59.0387 24.48 59.0421 24.48C59.0792 24.48 59.1164 24.522 59.1535 24.6059C59.1906 24.6898 59.2092 24.8105 59.2092 24.9679V26.1325C59.2092 26.2724 59.2277 26.3685 59.2649 26.421C59.3054 26.4699 59.378 26.4944 59.4826 26.4944C59.4927 26.4944 59.4978 26.5049 59.4978 26.5259C59.4978 26.5469 59.4927 26.5574 59.4826 26.5574C59.4151 26.5574 59.3374 26.5556 59.2497 26.5521C59.1619 26.5486 59.0691 26.5469 58.9712 26.5469C58.8767 26.5469 58.7855 26.5486 58.6978 26.5521C58.61 26.5556 58.5324 26.5574 58.4649 26.5574Z" fill="black"/>
<path d="M62.4008 26.5574C62.3907 26.5574 62.3856 26.5469 62.3856 26.5259C62.3856 26.5049 62.3907 26.4944 62.4008 26.4944C62.5054 26.4944 62.5763 26.4699 62.6134 26.421C62.6506 26.3685 62.6691 26.2724 62.6691 26.1325V25.1934C62.6691 25.078 62.6573 24.9941 62.6337 24.9416C62.6134 24.8857 62.5746 24.8577 62.5172 24.8577C62.4936 24.8577 62.4649 24.8629 62.4312 24.8734C62.4008 24.8839 62.367 24.8979 62.3299 24.9154C62.3164 24.9189 62.3046 24.9102 62.2945 24.8892C62.2877 24.8682 62.2894 24.856 62.2995 24.8525L63.0641 24.4852C63.0708 24.4817 63.0759 24.48 63.0793 24.48C63.0961 24.48 63.113 24.4887 63.1299 24.5062C63.1468 24.5237 63.1552 24.5395 63.1552 24.5534C63.1552 24.5954 63.1535 24.6654 63.1502 24.7633C63.1468 24.8612 63.1451 25.0011 63.1451 25.183V26.1325C63.1451 26.2724 63.1637 26.3685 63.2008 26.421C63.2413 26.4699 63.3139 26.4944 63.4185 26.4944C63.4286 26.4944 63.4337 26.5049 63.4337 26.5259C63.4337 26.5469 63.4286 26.5574 63.4185 26.5574C63.351 26.5574 63.2734 26.5556 63.1856 26.5521C63.0978 26.5486 63.005 26.5469 62.9071 26.5469C62.8126 26.5469 62.7215 26.5486 62.6337 26.5521C62.5459 26.5556 62.4683 26.5574 62.4008 26.5574ZM62.8869 23.9607C62.7924 23.9607 62.7164 23.9327 62.659 23.8767C62.605 23.8208 62.578 23.7421 62.578 23.6407C62.578 23.5497 62.605 23.478 62.659 23.4256C62.7164 23.3696 62.7924 23.3416 62.8869 23.3416C62.9814 23.3416 63.054 23.3696 63.1046 23.4256C63.1552 23.478 63.1805 23.5497 63.1805 23.6407C63.1805 23.854 63.0826 23.9607 62.8869 23.9607Z" fill="black"/>
<path d="M64.1309 24.7843C64.1309 24.8577 64.1495 24.9242 64.1866 24.9836C64.2271 25.0396 64.2777 25.092 64.3385 25.141C64.3992 25.1864 64.4651 25.2319 64.536 25.2774C64.6203 25.3263 64.703 25.3788 64.7841 25.4348C64.8651 25.4872 64.9326 25.5519 64.9866 25.6289C65.0406 25.7058 65.0676 25.8055 65.0676 25.9279C65.0676 26.0398 65.0389 26.1499 64.9815 26.2584C64.9275 26.3633 64.8448 26.449 64.7334 26.5154C64.622 26.5819 64.4819 26.6151 64.3132 26.6151C64.2288 26.6151 64.1444 26.6046 64.06 26.5836C63.9756 26.5661 63.8845 26.5294 63.7866 26.4734C63.7798 26.4664 63.7731 26.4577 63.7663 26.4472C63.7596 26.4367 63.7562 26.4245 63.7562 26.4105L63.7461 25.8911C63.7461 25.8807 63.7545 25.8754 63.7714 25.8754C63.7917 25.8719 63.8035 25.8737 63.8068 25.8807C63.844 25.9926 63.8963 26.0975 63.9638 26.1954C64.0313 26.2898 64.1073 26.3668 64.1917 26.4262C64.2794 26.4822 64.3672 26.5102 64.4549 26.5102C64.5225 26.5102 64.5781 26.4892 64.622 26.4472C64.6659 26.4017 64.6879 26.3336 64.6879 26.2426C64.6879 26.1447 64.6659 26.0643 64.622 26.0013C64.5815 25.9349 64.5292 25.8789 64.4651 25.8334C64.4009 25.7845 64.3351 25.7408 64.2676 25.7023C64.19 25.6568 64.1123 25.6096 64.0347 25.5607C63.9571 25.5117 63.8929 25.4505 63.8423 25.377C63.7917 25.3001 63.7663 25.2004 63.7663 25.078C63.7663 24.9311 63.8018 24.814 63.8727 24.7266C63.9436 24.6391 64.0347 24.5762 64.1461 24.5377C64.2608 24.4992 64.379 24.48 64.5005 24.48C64.5748 24.48 64.6423 24.4852 64.703 24.4957C64.7672 24.5062 64.8398 24.5272 64.9208 24.5587C64.9511 24.5692 64.9663 24.5884 64.9663 24.6164C64.9663 24.6863 64.9646 24.7598 64.9613 24.8367C64.9579 24.9102 64.9562 24.9923 64.9562 25.0833C64.9562 25.0938 64.9461 25.099 64.9258 25.099C64.9056 25.099 64.8954 25.0938 64.8954 25.0833C64.8954 25.0168 64.8684 24.9451 64.8144 24.8682C64.7638 24.7913 64.6963 24.7248 64.6119 24.6689C64.5275 24.6094 64.4364 24.5797 64.3385 24.5797C64.2912 24.5797 64.244 24.5919 64.1967 24.6164C64.1528 24.6409 64.1309 24.6968 64.1309 24.7843Z" fill="black"/>
</svg>
